solid jaw
facet normal -1.0 0.0 -0.0
outer loop
vertex -3.524958103184872e-16 15.874999999999122 -5.4989346409684e-14
vertex -3.524958103184872e-16 2.1812440742510165e-14 6.35
vertex -3.524958103184872e-16 15.874999999999144 6.349999999999945
endloop
endfacet
facet normal -1.0 0.0 -0.0
outer loop
vertex -3.524958103184872e-16 2.1812440742510165e-14 6.35
vertex -3.524958103184872e-16 15.874999999999122 -5.4989346409684e-14
vertex -3.524958103184872e-16 -4.2299497236041036e-17 0.0
endloop
endfacet
facet normal 0.0 -1.0 3.4416913763379853e-15
outer loop
vertex 85.09 -4.2299497236041036e-17 0.0
vertex -3.524958103184872e-16 2.1812440742510165e-14 6.35
vertex -3.524958103184872e-16 -4.2299497236041036e-17 0.0
endloop
endfacet
facet normal 0.0 -1.0 3.4416913763379853e-15
outer loop
vertex -3.524958103184872e-16 2.1812440742510165e-14 6.35
vertex 85.09 -4.2299497236041036e-17 0.0
vertex 85.09 2.1812440742510165e-14 6.35
endloop
endfacet
facet normal 0.0 -3.4416913763379853e-15 -1.0
outer loop
vertex -3.524958103184872e-16 -4.2299497236041036e-17 0.0
vertex 12.7 3.175 -1.127986593019159e-14
vertex 85.09 -4.2299497236041036e-17 0.0
endloop
endfacet
facet normal 0.0 -3.4416913763379853e-15 -1.0
outer loop
vertex 12.7 3.175 -1.127986593019159e-14
vertex -3.524958103184872e-16 -4.2299497236041036e-17 0.0
vertex 11.878249531799494 3.2831855015322082 -1.127986593019159e-14
endloop
endfacet
facet normal 0.0 -3.4416913763379853e-15 -1.0
outer loop
vertex 11.878249531799494 3.2831855015322082 -1.127986593019159e-14
vertex -3.524958103184872e-16 -4.2299497236041036e-17 0.0
vertex 11.112499999999997 3.600369342984408 -1.2689849171465539e-14
endloop
endfacet
facet normal 0.0 -3.4416913763379853e-15 -1.0
outer loop
vertex 11.112499999999997 3.600369342984408 -1.2689849171465539e-14
vertex -3.524958103184872e-16 -4.2299497236041036e-17 0.0
vertex 10.454935969732709 4.104935969732713 -1.4099832412739488e-14
endloop
endfacet
facet normal 0.0 -3.4416913763379853e-15 -1.0
outer loop
vertex 10.454935969732709 4.104935969732713 -1.4099832412739488e-14
vertex -3.524958103184872e-16 -4.2299497236041036e-17 0.0
vertex -3.524958103184872e-16 15.874999999999122 -5.4989346409684e-14
endloop
endfacet
facet normal 0.0 -3.4416913763379853e-15 -1.0
outer loop
vertex 10.454935969732709 4.104935969732713 -1.4099832412739488e-14
vertex -3.524958103184872e-16 15.874999999999122 -5.4989346409684e-14
vertex 9.950369342984406 4.762500000000001 -1.6919798895287383e-14
endloop
endfacet
facet normal 0.0 -3.4416913763379853e-15 -1.0
outer loop
vertex 9.950369342984406 4.762500000000001 -1.6919798895287383e-14
vertex -3.524958103184872e-16 15.874999999999122 -5.4989346409684e-14
vertex 9.633185501532207 5.5282495317994975 -1.8329782136561334e-14
endloop
endfacet
facet normal 0.0 -3.4416913763379853e-15 -1.0
outer loop
vertex 9.633185501532207 5.5282495317994975 -1.8329782136561334e-14
vertex -3.524958103184872e-16 15.874999999999122 -5.4989346409684e-14
vertex 9.524999999999999 6.35 -2.255973186038318e-14
endloop
endfacet
facet normal 0.0 -3.4416913763379853e-15 -1.0
outer loop
vertex 9.524999999999999 6.35 -2.255973186038318e-14
vertex -3.524958103184872e-16 15.874999999999122 -5.4989346409684e-14
vertex 9.633185501532209 7.171750468200503 -2.5379698342931078e-14
endloop
endfacet
facet normal 0.0 -3.4416913763379853e-15 -1.0
outer loop
vertex 9.633185501532209 7.171750468200503 -2.5379698342931078e-14
vertex -3.524958103184872e-16 15.874999999999122 -5.4989346409684e-14
vertex 9.950369342984407 7.9375 -2.6789681584205025e-14
endloop
endfacet
facet normal 0.0 -3.4416913763379853e-15 -1.0
outer loop
vertex 9.950369342984407 7.9375 -2.6789681584205025e-14
vertex -3.524958103184872e-16 15.874999999999122 -5.4989346409684e-14
vertex 10.45493596973271 8.595064030267286 -2.9609648066752924e-14
endloop
endfacet
facet normal 0.0 -3.4416913763379853e-15 -1.0
outer loop
vertex 10.45493596973271 8.595064030267286 -2.9609648066752924e-14
vertex -3.524958103184872e-16 15.874999999999122 -5.4989346409684e-14
vertex 11.112499999999999 9.099630657015592 -3.101963130802687e-14
endloop
endfacet
facet normal 0.0 -3.4416913763379853e-15 -1.0
outer loop
vertex 11.112499999999999 9.099630657015592 -3.101963130802687e-14
vertex -3.524958103184872e-16 15.874999999999122 -5.4989346409684e-14
vertex 11.878249531799495 9.41681449846779 -3.242961454930082e-14
endloop
endfacet
facet normal 0.0 -3.4416913763379853e-15 -1.0
outer loop
vertex 11.878249531799495 9.41681449846779 -3.242961454930082e-14
vertex -3.524958103184872e-16 15.874999999999122 -5.4989346409684e-14
vertex 12.7 9.524999999999999 -3.242961454930082e-14
endloop
endfacet
facet normal 0.0 -3.4416913763379853e-15 -1.0
outer loop
vertex 12.7 9.524999999999999 -3.242961454930082e-14
vertex -3.524958103184872e-16 15.874999999999122 -5.4989346409684e-14
vertex 42.545 9.524999999999999 -3.242961454930082e-14
endloop
endfacet
facet normal 0.0 -3.4416913763379853e-15 -1.0
outer loop
vertex 42.545 9.524999999999999 -3.242961454930082e-14
vertex -3.524958103184872e-16 15.874999999999122 -5.4989346409684e-14
vertex 72.39 9.524999999999999 -3.242961454930082e-14
endloop
endfacet
facet normal 0.0 -3.4416913763379853e-15 -1.0
outer loop
vertex 85.09 -4.2299497236041036e-17 0.0
vertex 74.63506403026729 4.104935969732711 -1.4099832412739488e-14
vertex 85.09 15.874999999999122 -5.4989346409684e-14
endloop
endfacet
facet normal 0.0 -3.4416913763379853e-15 -1.0
outer loop
vertex 74.63506403026729 4.104935969732711 -1.4099832412739488e-14
vertex 85.09 -4.2299497236041036e-17 0.0
vertex 73.97749999999999 3.6003693429844064 -1.2689849171465539e-14
endloop
endfacet
facet normal 0.0 -3.4416913763379853e-15 -1.0
outer loop
vertex 73.97749999999999 3.6003693429844064 -1.2689849171465539e-14
vertex 85.09 -4.2299497236041036e-17 0.0
vertex 73.21175046820049 3.2831855015322082 -1.127986593019159e-14
endloop
endfacet
facet normal 0.0 -3.4416913763379853e-15 -1.0
outer loop
vertex 73.21175046820049 3.2831855015322082 -1.127986593019159e-14
vertex 85.09 -4.2299497236041036e-17 0.0
vertex 72.39 3.175 -1.127986593019159e-14
endloop
endfacet
facet normal 0.0 -3.4416913763379853e-15 -1.0
outer loop
vertex 72.39 3.175 -1.127986593019159e-14
vertex 85.09 -4.2299497236041036e-17 0.0
vertex 12.7 3.175 -1.127986593019159e-14
endloop
endfacet
facet normal 0.0 -3.4416913763379853e-15 -1.0
outer loop
vertex 72.39 3.175 -1.127986593019159e-14
vertex 12.7 3.175 -1.127986593019159e-14
vertex 42.545 3.175 -1.127986593019159e-14
endloop
endfacet
facet normal 0.0 -3.4416913763379853e-15 -1.0
outer loop
vertex 85.09 15.874999999999122 -5.4989346409684e-14
vertex 74.63506403026729 4.104935969732711 -1.4099832412739488e-14
vertex 75.13963065701559 4.762499999999998 -1.6919798895287383e-14
endloop
endfacet
facet normal 0.0 -3.4416913763379853e-15 -1.0
outer loop
vertex 85.09 15.874999999999122 -5.4989346409684e-14
vertex 75.13963065701559 4.762499999999998 -1.6919798895287383e-14
vertex 75.45681449846779 5.528249531799495 -1.8329782136561334e-14
endloop
endfacet
facet normal 0.0 -3.4416913763379853e-15 -1.0
outer loop
vertex 85.09 15.874999999999122 -5.4989346409684e-14
vertex 75.45681449846779 5.528249531799495 -1.8329782136561334e-14
vertex 75.565 6.349999999999999 -2.1149748619109232e-14
endloop
endfacet
facet normal 0.0 -3.4416913763379853e-15 -1.0
outer loop
vertex 85.09 15.874999999999122 -5.4989346409684e-14
vertex 75.565 6.349999999999999 -2.1149748619109232e-14
vertex 75.45681449846779 7.1717504682005 -2.5379698342931078e-14
endloop
endfacet
facet normal 0.0 -3.4416913763379853e-15 -1.0
outer loop
vertex 85.09 15.874999999999122 -5.4989346409684e-14
vertex 75.45681449846779 7.1717504682005 -2.5379698342931078e-14
vertex 75.13963065701559 7.9375 -2.6789681584205025e-14
endloop
endfacet
facet normal 0.0 -3.4416913763379853e-15 -1.0
outer loop
vertex 85.09 15.874999999999122 -5.4989346409684e-14
vertex 75.13963065701559 7.9375 -2.6789681584205025e-14
vertex 74.63506403026729 8.595064030267286 -2.9609648066752924e-14
endloop
endfacet
facet normal 0.0 -3.4416913763379853e-15 -1.0
outer loop
vertex 85.09 15.874999999999122 -5.4989346409684e-14
vertex 74.63506403026729 8.595064030267286 -2.9609648066752924e-14
vertex 73.97749999999999 9.099630657015592 -3.101963130802687e-14
endloop
endfacet
facet normal 0.0 -3.4416913763379853e-15 -1.0
outer loop
vertex 85.09 15.874999999999122 -5.4989346409684e-14
vertex 73.97749999999999 9.099630657015592 -3.101963130802687e-14
vertex 73.21175046820049 9.41681449846779 -3.242961454930082e-14
endloop
endfacet
facet normal 0.0 -3.4416913763379853e-15 -1.0
outer loop
vertex 85.09 15.874999999999122 -5.4989346409684e-14
vertex 73.21175046820049 9.41681449846779 -3.242961454930082e-14
vertex 72.39 9.524999999999999 -3.242961454930082e-14
endloop
endfacet
facet normal 0.0 -3.4416913763379853e-15 -1.0
outer loop
vertex 85.09 15.874999999999122 -5.4989346409684e-14
vertex 72.39 9.524999999999999 -3.242961454930082e-14
vertex -3.524958103184872e-16 15.874999999999122 -5.4989346409684e-14
endloop
endfacet
facet normal 0.0 -3.4416913763379853e-15 -1.0
outer loop
vertex 43.3667504682005 3.2831855015322082 -1.127986593019159e-14
vertex 72.39 3.175 -1.127986593019159e-14
vertex 42.545 3.175 -1.127986593019159e-14
endloop
endfacet
facet normal 0.0 -3.4416913763379853e-15 -1.0
outer loop
vertex 72.39 3.175 -1.127986593019159e-14
vertex 43.3667504682005 3.2831855015322082 -1.127986593019159e-14
vertex 71.5682495317995 3.2831855015322082 -1.127986593019159e-14
endloop
endfacet
facet normal 0.0 -3.4416913763379853e-15 -1.0
outer loop
vertex 71.5682495317995 3.2831855015322082 -1.127986593019159e-14
vertex 43.3667504682005 3.2831855015322082 -1.127986593019159e-14
vertex 44.1325 3.6003693429844064 -1.2689849171465539e-14
endloop
endfacet
facet normal 0.0 -3.4416913763379853e-15 -1.0
outer loop
vertex 71.5682495317995 3.2831855015322082 -1.127986593019159e-14
vertex 44.1325 3.6003693429844064 -1.2689849171465539e-14
vertex 70.8025 3.600369342984408 -1.2689849171465539e-14
endloop
endfacet
facet normal 0.0 -3.4416913763379853e-15 -1.0
outer loop
vertex 70.8025 3.600369342984408 -1.2689849171465539e-14
vertex 44.1325 3.6003693429844064 -1.2689849171465539e-14
vertex 44.79006403026729 4.104935969732711 -1.4099832412739488e-14
endloop
endfacet
facet normal 0.0 -3.4416913763379853e-15 -1.0
outer loop
vertex 70.8025 3.600369342984408 -1.2689849171465539e-14
vertex 44.79006403026729 4.104935969732711 -1.4099832412739488e-14
vertex 70.14493596973271 4.104935969732711 -1.4099832412739488e-14
endloop
endfacet
facet normal 0.0 -3.4416913763379853e-15 -1.0
outer loop
vertex 70.14493596973271 4.104935969732711 -1.4099832412739488e-14
vertex 44.79006403026729 4.104935969732711 -1.4099832412739488e-14
vertex 45.294630657015595 4.762499999999998 -1.6919798895287383e-14
endloop
endfacet
facet normal 0.0 -3.4416913763379853e-15 -1.0
outer loop
vertex 70.14493596973271 4.104935969732711 -1.4099832412739488e-14
vertex 45.294630657015595 4.762499999999998 -1.6919798895287383e-14
vertex 69.64036934298441 4.762499999999999 -1.6919798895287383e-14
endloop
endfacet
facet normal 0.0 -3.4416913763379853e-15 -1.0
outer loop
vertex 69.64036934298441 4.762499999999999 -1.6919798895287383e-14
vertex 45.294630657015595 4.762499999999998 -1.6919798895287383e-14
vertex 45.61181449846779 5.528249531799495 -1.8329782136561334e-14
endloop
endfacet
facet normal 0.0 -3.4416913763379853e-15 -1.0
outer loop
vertex 69.64036934298441 4.762499999999999 -1.6919798895287383e-14
vertex 45.61181449846779 5.528249531799495 -1.8329782136561334e-14
vertex 69.32318550153221 5.528249531799497 -1.8329782136561334e-14
endloop
endfacet
facet normal 0.0 -3.4416913763379853e-15 -1.0
outer loop
vertex 69.32318550153221 5.528249531799497 -1.8329782136561334e-14
vertex 45.61181449846779 5.528249531799495 -1.8329782136561334e-14
vertex 45.72 6.349999999999999 -2.1149748619109232e-14
endloop
endfacet
facet normal 0.0 -3.4416913763379853e-15 -1.0
outer loop
vertex 69.32318550153221 5.528249531799497 -1.8329782136561334e-14
vertex 45.72 6.349999999999999 -2.1149748619109232e-14
vertex 69.215 6.35 -2.255973186038318e-14
endloop
endfacet
facet normal 0.0 -3.4416913763379853e-15 -1.0
outer loop
vertex 69.215 6.35 -2.255973186038318e-14
vertex 45.72 6.349999999999999 -2.1149748619109232e-14
vertex 45.61181449846779 7.1717504682005 -2.5379698342931078e-14
endloop
endfacet
facet normal 0.0 -3.4416913763379853e-15 -1.0
outer loop
vertex 69.215 6.35 -2.255973186038318e-14
vertex 45.61181449846779 7.1717504682005 -2.5379698342931078e-14
vertex 69.32318550153221 7.171750468200505 -2.5379698342931078e-14
endloop
endfacet
facet normal 0.0 -3.4416913763379853e-15 -1.0
outer loop
vertex 69.32318550153221 7.171750468200505 -2.5379698342931078e-14
vertex 45.61181449846779 7.1717504682005 -2.5379698342931078e-14
vertex 45.294630657015595 7.9375 -2.6789681584205025e-14
endloop
endfacet
facet normal 0.0 -3.4416913763379853e-15 -1.0
outer loop
vertex 69.32318550153221 7.171750468200505 -2.5379698342931078e-14
vertex 45.294630657015595 7.9375 -2.6789681584205025e-14
vertex 69.64036934298441 7.9375 -2.6789681584205025e-14
endloop
endfacet
facet normal 0.0 -3.4416913763379853e-15 -1.0
outer loop
vertex 69.64036934298441 7.9375 -2.6789681584205025e-14
vertex 45.294630657015595 7.9375 -2.6789681584205025e-14
vertex 44.79006403026729 8.595064030267286 -2.9609648066752924e-14
endloop
endfacet
facet normal 0.0 -3.4416913763379853e-15 -1.0
outer loop
vertex 69.64036934298441 7.9375 -2.6789681584205025e-14
vertex 44.79006403026729 8.595064030267286 -2.9609648066752924e-14
vertex 70.14493596973271 8.59506403026729 -2.9609648066752924e-14
endloop
endfacet
facet normal 0.0 -3.4416913763379853e-15 -1.0
outer loop
vertex 70.14493596973271 8.59506403026729 -2.9609648066752924e-14
vertex 44.79006403026729 8.595064030267286 -2.9609648066752924e-14
vertex 44.1325 9.099630657015592 -3.101963130802687e-14
endloop
endfacet
facet normal 0.0 -3.4416913763379853e-15 -1.0
outer loop
vertex 70.14493596973271 8.59506403026729 -2.9609648066752924e-14
vertex 44.1325 9.099630657015592 -3.101963130802687e-14
vertex 70.8025 9.099630657015593 -3.101963130802687e-14
endloop
endfacet
facet normal 0.0 -3.4416913763379853e-15 -1.0
outer loop
vertex 70.8025 9.099630657015593 -3.101963130802687e-14
vertex 44.1325 9.099630657015592 -3.101963130802687e-14
vertex 43.36675046820051 9.41681449846779 -3.242961454930082e-14
endloop
endfacet
facet normal 0.0 -3.4416913763379853e-15 -1.0
outer loop
vertex 70.8025 9.099630657015593 -3.101963130802687e-14
vertex 43.36675046820051 9.41681449846779 -3.242961454930082e-14
vertex 71.5682495317995 9.416814498467792 -3.242961454930082e-14
endloop
endfacet
facet normal 0.0 -3.4416913763379853e-15 -1.0
outer loop
vertex 71.5682495317995 9.416814498467792 -3.242961454930082e-14
vertex 43.36675046820051 9.41681449846779 -3.242961454930082e-14
vertex 42.545 9.524999999999999 -3.242961454930082e-14
endloop
endfacet
facet normal 0.0 -3.4416913763379853e-15 -1.0
outer loop
vertex 71.5682495317995 9.416814498467792 -3.242961454930082e-14
vertex 42.545 9.524999999999999 -3.242961454930082e-14
vertex 72.39 9.524999999999999 -3.242961454930082e-14
endloop
endfacet
facet normal 0.0 -3.4416913763379853e-15 -1.0
outer loop
vertex 13.5217504682005 3.283185501532207 -1.127986593019159e-14
vertex 42.545 3.175 -1.127986593019159e-14
vertex 12.7 3.175 -1.127986593019159e-14
endloop
endfacet
facet normal 0.0 -3.4416913763379853e-15 -1.0
outer loop
vertex 42.545 3.175 -1.127986593019159e-14
vertex 13.5217504682005 3.283185501532207 -1.127986593019159e-14
vertex 41.723249531799496 3.2831855015322082 -1.127986593019159e-14
endloop
endfacet
facet normal 0.0 -3.4416913763379853e-15 -1.0
outer loop
vertex 41.723249531799496 3.2831855015322082 -1.127986593019159e-14
vertex 13.5217504682005 3.283185501532207 -1.127986593019159e-14
vertex 14.287499999999996 3.600369342984405 -1.2689849171465539e-14
endloop
endfacet
facet normal 0.0 -3.4416913763379853e-15 -1.0
outer loop
vertex 41.723249531799496 3.2831855015322082 -1.127986593019159e-14
vertex 14.287499999999996 3.600369342984405 -1.2689849171465539e-14
vertex 40.957499999999996 3.600369342984408 -1.2689849171465539e-14
endloop
endfacet
facet normal 0.0 -3.4416913763379853e-15 -1.0
outer loop
vertex 40.957499999999996 3.600369342984408 -1.2689849171465539e-14
vertex 14.287499999999996 3.600369342984405 -1.2689849171465539e-14
vertex 14.94506403026729 4.10493596973271 -1.4099832412739488e-14
endloop
endfacet
facet normal 0.0 -3.4416913763379853e-15 -1.0
outer loop
vertex 40.957499999999996 3.600369342984408 -1.2689849171465539e-14
vertex 14.94506403026729 4.10493596973271 -1.4099832412739488e-14
vertex 40.29993596973271 4.104935969732711 -1.4099832412739488e-14
endloop
endfacet
facet normal 0.0 -3.4416913763379853e-15 -1.0
outer loop
vertex 40.29993596973271 4.104935969732711 -1.4099832412739488e-14
vertex 14.94506403026729 4.10493596973271 -1.4099832412739488e-14
vertex 15.449630657015591 4.762499999999998 -1.6919798895287383e-14
endloop
endfacet
facet normal 0.0 -3.4416913763379853e-15 -1.0
outer loop
vertex 40.29993596973271 4.104935969732711 -1.4099832412739488e-14
vertex 15.449630657015591 4.762499999999998 -1.6919798895287383e-14
vertex 39.7953693429844 4.762499999999999 -1.6919798895287383e-14
endloop
endfacet
facet normal 0.0 -3.4416913763379853e-15 -1.0
outer loop
vertex 39.7953693429844 4.762499999999999 -1.6919798895287383e-14
vertex 15.449630657015591 4.762499999999998 -1.6919798895287383e-14
vertex 15.76681449846779 5.528249531799494 -1.8329782136561334e-14
endloop
endfacet
facet normal 0.0 -3.4416913763379853e-15 -1.0
outer loop
vertex 39.7953693429844 4.762499999999999 -1.6919798895287383e-14
vertex 15.76681449846779 5.528249531799494 -1.8329782136561334e-14
vertex 39.47818550153221 5.528249531799497 -1.8329782136561334e-14
endloop
endfacet
facet normal 0.0 -3.4416913763379853e-15 -1.0
outer loop
vertex 39.47818550153221 5.528249531799497 -1.8329782136561334e-14
vertex 15.76681449846779 5.528249531799494 -1.8329782136561334e-14
vertex 15.875 6.35 -2.255973186038318e-14
endloop
endfacet
facet normal 0.0 -3.4416913763379853e-15 -1.0
outer loop
vertex 39.47818550153221 5.528249531799497 -1.8329782136561334e-14
vertex 15.875 6.35 -2.255973186038318e-14
vertex 39.37 6.35 -2.255973186038318e-14
endloop
endfacet
facet normal 0.0 -3.4416913763379853e-15 -1.0
outer loop
vertex 39.37 6.35 -2.255973186038318e-14
vertex 15.875 6.35 -2.255973186038318e-14
vertex 15.76681449846779 7.171750468200503 -2.5379698342931078e-14
endloop
endfacet
facet normal 0.0 -3.4416913763379853e-15 -1.0
outer loop
vertex 39.37 6.35 -2.255973186038318e-14
vertex 15.76681449846779 7.171750468200503 -2.5379698342931078e-14
vertex 39.47818550153221 7.171750468200505 -2.5379698342931078e-14
endloop
endfacet
facet normal 0.0 -3.4416913763379853e-15 -1.0
outer loop
vertex 39.47818550153221 7.171750468200505 -2.5379698342931078e-14
vertex 15.76681449846779 7.171750468200503 -2.5379698342931078e-14
vertex 15.449630657015593 7.9375 -2.6789681584205025e-14
endloop
endfacet
facet normal 0.0 -3.4416913763379853e-15 -1.0
outer loop
vertex 39.47818550153221 7.171750468200505 -2.5379698342931078e-14
vertex 15.449630657015593 7.9375 -2.6789681584205025e-14
vertex 39.7953693429844 7.9375 -2.6789681584205025e-14
endloop
endfacet
facet normal 0.0 -3.4416913763379853e-15 -1.0
outer loop
vertex 39.7953693429844 7.9375 -2.6789681584205025e-14
vertex 15.449630657015593 7.9375 -2.6789681584205025e-14
vertex 14.94506403026729 8.595064030267286 -2.9609648066752924e-14
endloop
endfacet
facet normal 0.0 -3.4416913763379853e-15 -1.0
outer loop
vertex 39.7953693429844 7.9375 -2.6789681584205025e-14
vertex 14.94506403026729 8.595064030267286 -2.9609648066752924e-14
vertex 40.29993596973271 8.59506403026729 -2.9609648066752924e-14
endloop
endfacet
facet normal 0.0 -3.4416913763379853e-15 -1.0
outer loop
vertex 40.29993596973271 8.59506403026729 -2.9609648066752924e-14
vertex 14.94506403026729 8.595064030267286 -2.9609648066752924e-14
vertex 14.2875 9.099630657015592 -3.101963130802687e-14
endloop
endfacet
facet normal 0.0 -3.4416913763379853e-15 -1.0
outer loop
vertex 40.29993596973271 8.59506403026729 -2.9609648066752924e-14
vertex 14.2875 9.099630657015592 -3.101963130802687e-14
vertex 40.957499999999996 9.099630657015593 -3.101963130802687e-14
endloop
endfacet
facet normal 0.0 -3.4416913763379853e-15 -1.0
outer loop
vertex 40.957499999999996 9.099630657015593 -3.101963130802687e-14
vertex 14.2875 9.099630657015592 -3.101963130802687e-14
vertex 13.521750468200503 9.41681449846779 -3.242961454930082e-14
endloop
endfacet
facet normal 0.0 -3.4416913763379853e-15 -1.0
outer loop
vertex 40.957499999999996 9.099630657015593 -3.101963130802687e-14
vertex 13.521750468200503 9.41681449846779 -3.242961454930082e-14
vertex 41.723249531799496 9.416814498467792 -3.242961454930082e-14
endloop
endfacet
facet normal 0.0 -3.4416913763379853e-15 -1.0
outer loop
vertex 41.723249531799496 9.416814498467792 -3.242961454930082e-14
vertex 13.521750468200503 9.41681449846779 -3.242961454930082e-14
vertex 12.7 9.524999999999999 -3.242961454930082e-14
endloop
endfacet
facet normal 0.0 -3.4416913763379853e-15 -1.0
outer loop
vertex 41.723249531799496 9.416814498467792 -3.242961454930082e-14
vertex 12.7 9.524999999999999 -3.242961454930082e-14
vertex 42.545 9.524999999999999 -3.242961454930082e-14
endloop
endfacet
facet normal 0.0 1.0 -3.4416913763379853e-15
outer loop
vertex 85.08999994397541 15.874998554564948 8.000999999999312
vertex 3.1750017238333803 15.874999999999117 6.349994440637663
vertex 3.1750016678088 15.87499855456492 8.00099444063703
endloop
endfacet
facet normal 0.0 1.0 -3.4416913763379853e-15
outer loop
vertex 3.1750017238333803 15.874999999999117 6.349994440637663
vertex -3.524958103184872e-16 15.874999999999122 -5.4989346409684e-14
vertex -3.524958103184872e-16 15.874999999999144 6.349999999999945
endloop
endfacet
facet normal 0.0 1.0 -3.4416913763379853e-15
outer loop
vertex -3.524958103184872e-16 15.874999999999122 -5.4989346409684e-14
vertex 3.1750017238333803 15.874999999999117 6.349994440637663
vertex 85.09 15.874999999999122 -5.4989346409684e-14
endloop
endfacet
facet normal 0.0 1.0 -3.4416913763379853e-15
outer loop
vertex 85.09 15.874999999999122 -5.4989346409684e-14
vertex 3.1750017238333803 15.874999999999117 6.349994440637663
vertex 85.08999994397541 15.874998554564948 8.000999999999312
endloop
endfacet
facet normal 1.0 0.0 0.0
outer loop
vertex 85.09 -4.2299497236041036e-17 0.0
vertex 85.09000137906662 12.699999999999136 6.3499944406376745
vertex 85.09 2.1812440742510165e-14 6.35
endloop
endfacet
facet normal 1.0 0.0 0.0
outer loop
vertex 85.09000132304203 12.69999855456494 8.000994440637042
vertex 85.09 15.874999999999122 -5.4989346409684e-14
vertex 85.08999994397541 15.874998554564948 8.000999999999312
endloop
endfacet
facet normal 1.0 0.0 0.0
outer loop
vertex 85.09 15.874999999999122 -5.4989346409684e-14
vertex 85.09000132304203 12.69999855456494 8.000994440637042
vertex 85.09000137906662 12.699999999999136 6.3499944406376745
endloop
endfacet
facet normal 1.0 0.0 0.0
outer loop
vertex 85.09 15.874999999999122 -5.4989346409684e-14
vertex 85.09000137906662 12.699999999999136 6.3499944406376745
vertex 85.09 -4.2299497236041036e-17 0.0
endloop
endfacet
facet normal 1.7321303750827786e-08 2.8144210774356266e-07 0.9999999999999603
outer loop
vertex 85.09 2.1812440742510165e-14 6.35
vertex 72.39 3.1750000000000216 6.349999999999983
vertex -3.524958103184872e-16 2.1812440742510165e-14 6.35
endloop
endfacet
facet normal 1.7321303750827786e-08 2.8144210774356266e-07 0.9999999999999603
outer loop
vertex 72.39 3.1750000000000216 6.349999999999983
vertex 85.09 2.1812440742510165e-14 6.35
vertex 73.21175046820049 3.28318550153223 6.349999999999983
endloop
endfacet
facet normal 1.7321303750827786e-08 2.8144210774356266e-07 0.9999999999999603
outer loop
vertex 73.21175046820049 3.28318550153223 6.349999999999983
vertex 85.09 2.1812440742510165e-14 6.35
vertex 73.97749999999999 3.6003693429844286 6.349999999999981
endloop
endfacet
facet normal 1.7321303750827786e-08 2.8144210774356266e-07 0.9999999999999603
outer loop
vertex 73.97749999999999 3.6003693429844286 6.349999999999981
vertex 85.09 2.1812440742510165e-14 6.35
vertex 74.63506403026729 4.1049359697327334 6.34999999999998
endloop
endfacet
facet normal 1.7321303750827786e-08 2.8144210774356266e-07 0.9999999999999603
outer loop
vertex 74.63506403026729 4.1049359697327334 6.34999999999998
vertex 85.09 2.1812440742510165e-14 6.35
vertex 85.09000137906662 12.699999999999136 6.3499944406376745
endloop
endfacet
facet normal 1.7321303750827786e-08 2.8144210774356266e-07 0.9999999999999603
outer loop
vertex 74.63506403026729 4.1049359697327334 6.34999999999998
vertex 85.09000137906662 12.699999999999136 6.3499944406376745
vertex 75.13963065701559 4.762500000000021 6.349999999999977
endloop
endfacet
facet normal 1.7321303750827786e-08 2.8144210774356266e-07 0.9999999999999603
outer loop
vertex 75.13963065701559 4.762500000000021 6.349999999999977
vertex 85.09000137906662 12.699999999999136 6.3499944406376745
vertex 75.45681449846779 5.528249531799517 6.349999999999975
endloop
endfacet
facet normal 1.7321303750827786e-08 2.8144210774356266e-07 0.9999999999999603
outer loop
vertex 75.45681449846779 5.528249531799517 6.349999999999975
vertex 85.09000137906662 12.699999999999136 6.3499944406376745
vertex 75.565 6.350000000000021 6.349999999999972
endloop
endfacet
facet normal 1.7321303750827786e-08 2.8144210774356266e-07 0.9999999999999603
outer loop
vertex 75.565 6.350000000000021 6.349999999999972
vertex 85.09000137906662 12.699999999999136 6.3499944406376745
vertex 75.45681449846779 7.171750468200523 6.3499999999999694
endloop
endfacet
facet normal 1.7321303750827786e-08 2.8144210774356266e-07 0.9999999999999603
outer loop
vertex 75.45681449846779 7.171750468200523 6.3499999999999694
vertex 85.09000137906662 12.699999999999136 6.3499944406376745
vertex 75.13963065701559 7.937500000000022 6.349999999999967
endloop
endfacet
facet normal 1.7321303750827786e-08 2.8144210774356266e-07 0.9999999999999603
outer loop
vertex 75.13963065701559 7.937500000000022 6.349999999999967
vertex 85.09000137906662 12.699999999999136 6.3499944406376745
vertex 74.63506403026729 8.59506403026731 6.349999999999964
endloop
endfacet
facet normal 1.7321303750827786e-08 2.8144210774356266e-07 0.9999999999999603
outer loop
vertex 74.63506403026729 8.59506403026731 6.349999999999964
vertex 85.09000137906662 12.699999999999136 6.3499944406376745
vertex 73.97749999999999 9.099630657015615 6.349999999999963
endloop
endfacet
facet normal 1.7321303750827786e-08 2.8144210774356266e-07 0.9999999999999603
outer loop
vertex 73.97749999999999 9.099630657015615 6.349999999999963
vertex 85.09000137906662 12.699999999999136 6.3499944406376745
vertex 73.21175046820049 9.416814498467811 6.3499999999999615
endloop
endfacet
facet normal 1.7321303750827786e-08 2.8144210774356266e-07 0.9999999999999603
outer loop
vertex 73.21175046820049 9.416814498467811 6.3499999999999615
vertex 85.09000137906662 12.699999999999136 6.3499944406376745
vertex 72.39 9.525000000000022 6.3499999999999615
endloop
endfacet
facet normal 1.7321303750827786e-08 2.8144210774356266e-07 0.9999999999999603
outer loop
vertex 72.39 9.525000000000022 6.3499999999999615
vertex 85.09000137906662 12.699999999999136 6.3499944406376745
vertex 42.545 9.525000000000022 6.349999999999945
endloop
endfacet
facet normal 1.7321303750827786e-08 2.8144210774356266e-07 0.9999999999999603
outer loop
vertex 42.545 9.525000000000022 6.349999999999945
vertex 85.09000137906662 12.699999999999136 6.3499944406376745
vertex 12.7 9.525000000000022 6.349999999999967
endloop
endfacet
facet normal 1.7321303750827786e-08 2.8144210774356266e-07 0.9999999999999603
outer loop
vertex -3.524958103184872e-16 2.1812440742510165e-14 6.35
vertex 10.454935969732709 4.104935969732735 6.349999999999985
vertex -3.524958103184872e-16 15.874999999999144 6.349999999999945
endloop
endfacet
facet normal 1.7321303750827786e-08 2.8144210774356266e-07 0.9999999999999603
outer loop
vertex 10.454935969732709 4.104935969732735 6.349999999999985
vertex -3.524958103184872e-16 2.1812440742510165e-14 6.35
vertex 11.112499999999997 3.60036934298443 6.349999999999987
endloop
endfacet
facet normal 1.7321303750827786e-08 2.8144210774356266e-07 0.9999999999999603
outer loop
vertex 11.112499999999997 3.60036934298443 6.349999999999987
vertex -3.524958103184872e-16 2.1812440742510165e-14 6.35
vertex 11.878249531799494 3.28318550153223 6.349999999999988
endloop
endfacet
facet normal 1.7321303750827786e-08 2.8144210774356266e-07 0.9999999999999603
outer loop
vertex 11.878249531799494 3.28318550153223 6.349999999999988
vertex -3.524958103184872e-16 2.1812440742510165e-14 6.35
vertex 12.7 3.1750000000000216 6.349999999999988
endloop
endfacet
facet normal 1.7321303750827786e-08 2.8144210774356266e-07 0.9999999999999603
outer loop
vertex 12.7 3.1750000000000216 6.349999999999988
vertex -3.524958103184872e-16 2.1812440742510165e-14 6.35
vertex 72.39 3.1750000000000216 6.349999999999983
endloop
endfacet
facet normal 1.7321303750827786e-08 2.8144210774356266e-07 0.9999999999999603
outer loop
vertex 12.7 3.1750000000000216 6.349999999999988
vertex 72.39 3.1750000000000216 6.349999999999983
vertex 42.545 3.1750000000000216 6.349999999999966
endloop
endfacet
facet normal 1.7321303750827786e-08 2.8144210774356266e-07 0.9999999999999603
outer loop
vertex -3.524958103184872e-16 15.874999999999144 6.349999999999945
vertex 10.454935969732709 4.104935969732735 6.349999999999985
vertex 9.950369342984406 4.762500000000023 6.349999999999983
endloop
endfacet
facet normal 1.7321303750827786e-08 2.8144210774356266e-07 0.9999999999999603
outer loop
vertex -3.524958103184872e-16 15.874999999999144 6.349999999999945
vertex 9.950369342984406 4.762500000000023 6.349999999999983
vertex 9.633185501532207 5.52824953179952 6.349999999999981
endloop
endfacet
facet normal 1.7321303750827786e-08 2.8144210774356266e-07 0.9999999999999603
outer loop
vertex -3.524958103184872e-16 15.874999999999144 6.349999999999945
vertex 9.633185501532207 5.52824953179952 6.349999999999981
vertex 9.524999999999999 6.350000000000022 6.349999999999977
endloop
endfacet
facet normal 1.7321303750827786e-08 2.8144210774356266e-07 0.9999999999999603
outer loop
vertex -3.524958103184872e-16 15.874999999999144 6.349999999999945
vertex 9.524999999999999 6.350000000000022 6.349999999999977
vertex 3.1750013790666385 12.699999999999136 6.3499944406376745
endloop
endfacet
facet normal 1.7321303750827786e-08 2.8144210774356266e-07 0.9999999999999603
outer loop
vertex 3.1750013790666385 12.699999999999136 6.3499944406376745
vertex 9.524999999999999 6.350000000000022 6.349999999999977
vertex 9.633185501532209 7.171750468200526 6.349999999999975
endloop
endfacet
facet normal 1.7321303750827786e-08 2.8144210774356266e-07 0.9999999999999603
outer loop
vertex 3.1750013790666385 12.699999999999136 6.3499944406376745
vertex 9.633185501532209 7.171750468200526 6.349999999999975
vertex 9.950369342984407 7.937500000000022 6.349999999999972
endloop
endfacet
facet normal 1.7321303750827786e-08 2.8144210774356266e-07 0.9999999999999603
outer loop
vertex 3.1750013790666385 12.699999999999136 6.3499944406376745
vertex 9.950369342984407 7.937500000000022 6.349999999999972
vertex 10.45493596973271 8.59506403026731 6.34999999999997
endloop
endfacet
facet normal 1.7321303750827786e-08 2.8144210774356266e-07 0.9999999999999603
outer loop
vertex 3.1750013790666385 12.699999999999136 6.3499944406376745
vertex 10.45493596973271 8.59506403026731 6.34999999999997
vertex 11.112499999999999 9.099630657015615 6.349999999999969
endloop
endfacet
facet normal 1.7321303750827786e-08 2.8144210774356266e-07 0.9999999999999603
outer loop
vertex 3.1750013790666385 12.699999999999136 6.3499944406376745
vertex 11.112499999999999 9.099630657015615 6.349999999999969
vertex 11.878249531799495 9.416814498467811 6.349999999999967
endloop
endfacet
facet normal 1.7321303750827786e-08 2.8144210774356266e-07 0.9999999999999603
outer loop
vertex 3.1750013790666385 12.699999999999136 6.3499944406376745
vertex 11.878249531799495 9.416814498467811 6.349999999999967
vertex 12.7 9.525000000000022 6.349999999999967
endloop
endfacet
facet normal 1.7321303750827786e-08 2.8144210774356266e-07 0.9999999999999603
outer loop
vertex 3.1750013790666385 12.699999999999136 6.3499944406376745
vertex 12.7 9.525000000000022 6.349999999999967
vertex 85.09000137906662 12.699999999999136 6.3499944406376745
endloop
endfacet
facet normal 1.7321303750827786e-08 2.8144210774356266e-07 0.9999999999999603
outer loop
vertex -3.524958103184872e-16 15.874999999999144 6.349999999999945
vertex 3.1750013790666385 12.699999999999136 6.3499944406376745
vertex 3.1750017238333803 15.874999999999117 6.349994440637663
endloop
endfacet
facet normal 1.7321303750827786e-08 2.8144210774356266e-07 0.9999999999999603
outer loop
vertex 41.723249531799496 3.28318550153223 6.349999999999966
vertex 12.7 3.1750000000000216 6.349999999999988
vertex 42.545 3.1750000000000216 6.349999999999966
endloop
endfacet
facet normal 1.7321303750827786e-08 2.8144210774356266e-07 0.9999999999999603
outer loop
vertex 12.7 3.1750000000000216 6.349999999999988
vertex 41.723249531799496 3.28318550153223 6.349999999999966
vertex 13.5217504682005 3.2831855015322287 6.349999999999988
endloop
endfacet
facet normal 1.7321303750827786e-08 2.8144210774356266e-07 0.9999999999999603
outer loop
vertex 13.5217504682005 3.2831855015322287 6.349999999999988
vertex 41.723249531799496 3.28318550153223 6.349999999999966
vertex 14.287499999999996 3.600369342984427 6.349999999999987
endloop
endfacet
facet normal 1.7321303750827786e-08 2.8144210774356266e-07 0.9999999999999603
outer loop
vertex 14.287499999999996 3.600369342984427 6.349999999999987
vertex 41.723249531799496 3.28318550153223 6.349999999999966
vertex 40.957499999999996 3.60036934298443 6.349999999999964
endloop
endfacet
facet normal 1.7321303750827786e-08 2.8144210774356266e-07 0.9999999999999603
outer loop
vertex 14.287499999999996 3.600369342984427 6.349999999999987
vertex 40.957499999999996 3.60036934298443 6.349999999999964
vertex 14.94506403026729 4.104935969732732 6.349999999999985
endloop
endfacet
facet normal 1.7321303750827786e-08 2.8144210774356266e-07 0.9999999999999603
outer loop
vertex 14.94506403026729 4.104935969732732 6.349999999999985
vertex 40.957499999999996 3.60036934298443 6.349999999999964
vertex 40.29993596973271 4.1049359697327334 6.349999999999963
endloop
endfacet
facet normal 1.7321303750827786e-08 2.8144210774356266e-07 0.9999999999999603
outer loop
vertex 14.94506403026729 4.104935969732732 6.349999999999985
vertex 40.29993596973271 4.1049359697327334 6.349999999999963
vertex 15.449630657015591 4.762500000000021 6.349999999999984
endloop
endfacet
facet normal 1.7321303750827786e-08 2.8144210774356266e-07 0.9999999999999603
outer loop
vertex 15.449630657015591 4.762500000000021 6.349999999999984
vertex 40.29993596973271 4.1049359697327334 6.349999999999963
vertex 39.7953693429844 4.7625000000000215 6.349999999999961
endloop
endfacet
facet normal 1.7321303750827786e-08 2.8144210774356266e-07 0.9999999999999603
outer loop
vertex 15.449630657015591 4.762500000000021 6.349999999999984
vertex 39.7953693429844 4.7625000000000215 6.349999999999961
vertex 15.76681449846779 5.528249531799515 6.349999999999981
endloop
endfacet
facet normal 1.7321303750827786e-08 2.8144210774356266e-07 0.9999999999999603
outer loop
vertex 15.76681449846779 5.528249531799515 6.349999999999981
vertex 39.7953693429844 4.7625000000000215 6.349999999999961
vertex 39.47818550153221 5.528249531799518 6.349999999999958
endloop
endfacet
facet normal 1.7321303750827786e-08 2.8144210774356266e-07 0.9999999999999603
outer loop
vertex 15.76681449846779 5.528249531799515 6.349999999999981
vertex 39.47818550153221 5.528249531799518 6.349999999999958
vertex 15.875 6.350000000000022 6.349999999999977
endloop
endfacet
facet normal 1.7321303750827786e-08 2.8144210774356266e-07 0.9999999999999603
outer loop
vertex 15.875 6.350000000000022 6.349999999999977
vertex 39.47818550153221 5.528249531799518 6.349999999999958
vertex 39.37 6.350000000000022 6.349999999999955
endloop
endfacet
facet normal 1.7321303750827786e-08 2.8144210774356266e-07 0.9999999999999603
outer loop
vertex 15.875 6.350000000000022 6.349999999999977
vertex 39.37 6.350000000000022 6.349999999999955
vertex 39.47818550153221 7.171750468200528 6.349999999999953
endloop
endfacet
facet normal 1.7321303750827786e-08 2.8144210774356266e-07 0.9999999999999603
outer loop
vertex 15.875 6.350000000000022 6.349999999999977
vertex 39.47818550153221 7.171750468200528 6.349999999999953
vertex 15.76681449846779 7.171750468200526 6.349999999999975
endloop
endfacet
facet normal 1.7321303750827786e-08 2.8144210774356266e-07 0.9999999999999603
outer loop
vertex 15.76681449846779 7.171750468200526 6.349999999999975
vertex 39.47818550153221 7.171750468200528 6.349999999999953
vertex 15.449630657015593 7.937500000000022 6.349999999999972
endloop
endfacet
facet normal 1.7321303750827786e-08 2.8144210774356266e-07 0.9999999999999603
outer loop
vertex 15.449630657015593 7.937500000000022 6.349999999999972
vertex 39.47818550153221 7.171750468200528 6.349999999999953
vertex 39.7953693429844 7.937500000000022 6.34999999999995
endloop
endfacet
facet normal 1.7321303750827786e-08 2.8144210774356266e-07 0.9999999999999603
outer loop
vertex 15.449630657015593 7.937500000000022 6.349999999999972
vertex 39.7953693429844 7.937500000000022 6.34999999999995
vertex 14.94506403026729 8.59506403026731 6.34999999999997
endloop
endfacet
facet normal 1.7321303750827786e-08 2.8144210774356266e-07 0.9999999999999603
outer loop
vertex 14.94506403026729 8.59506403026731 6.34999999999997
vertex 39.7953693429844 7.937500000000022 6.34999999999995
vertex 40.29993596973271 8.595064030267311 6.349999999999947
endloop
endfacet
facet normal 1.7321303750827786e-08 2.8144210774356266e-07 0.9999999999999603
outer loop
vertex 14.94506403026729 8.59506403026731 6.34999999999997
vertex 40.29993596973271 8.595064030267311 6.349999999999947
vertex 14.2875 9.099630657015615 6.349999999999969
endloop
endfacet
facet normal 1.7321303750827786e-08 2.8144210774356266e-07 0.9999999999999603
outer loop
vertex 14.2875 9.099630657015615 6.349999999999969
vertex 40.29993596973271 8.595064030267311 6.349999999999947
vertex 40.957499999999996 9.099630657015616 6.349999999999946
endloop
endfacet
facet normal 1.7321303750827786e-08 2.8144210774356266e-07 0.9999999999999603
outer loop
vertex 14.2875 9.099630657015615 6.349999999999969
vertex 40.957499999999996 9.099630657015616 6.349999999999946
vertex 13.521750468200503 9.416814498467811 6.349999999999967
endloop
endfacet
facet normal 1.7321303750827786e-08 2.8144210774356266e-07 0.9999999999999603
outer loop
vertex 13.521750468200503 9.416814498467811 6.349999999999967
vertex 40.957499999999996 9.099630657015616 6.349999999999946
vertex 41.723249531799496 9.416814498467815 6.349999999999945
endloop
endfacet
facet normal 1.7321303750827786e-08 2.8144210774356266e-07 0.9999999999999603
outer loop
vertex 13.521750468200503 9.416814498467811 6.349999999999967
vertex 41.723249531799496 9.416814498467815 6.349999999999945
vertex 12.7 9.525000000000022 6.349999999999967
endloop
endfacet
facet normal 1.7321303750827786e-08 2.8144210774356266e-07 0.9999999999999603
outer loop
vertex 12.7 9.525000000000022 6.349999999999967
vertex 41.723249531799496 9.416814498467815 6.349999999999945
vertex 42.545 9.525000000000022 6.349999999999945
endloop
endfacet
facet normal 1.7321303750827786e-08 2.8144210774356266e-07 0.9999999999999603
outer loop
vertex 71.5682495317995 3.28318550153223 6.349999999999983
vertex 42.545 3.1750000000000216 6.349999999999966
vertex 72.39 3.1750000000000216 6.349999999999983
endloop
endfacet
facet normal 1.7321303750827786e-08 2.8144210774356266e-07 0.9999999999999603
outer loop
vertex 42.545 3.1750000000000216 6.349999999999966
vertex 71.5682495317995 3.28318550153223 6.349999999999983
vertex 43.3667504682005 3.28318550153223 6.349999999999966
endloop
endfacet
facet normal 1.7321303750827786e-08 2.8144210774356266e-07 0.9999999999999603
outer loop
vertex 43.3667504682005 3.28318550153223 6.349999999999966
vertex 71.5682495317995 3.28318550153223 6.349999999999983
vertex 70.8025 3.60036934298443 6.349999999999981
endloop
endfacet
facet normal 1.7321303750827786e-08 2.8144210774356266e-07 0.9999999999999603
outer loop
vertex 43.3667504682005 3.28318550153223 6.349999999999966
vertex 70.8025 3.60036934298443 6.349999999999981
vertex 44.1325 3.6003693429844286 6.349999999999964
endloop
endfacet
facet normal 1.7321303750827786e-08 2.8144210774356266e-07 0.9999999999999603
outer loop
vertex 44.1325 3.6003693429844286 6.349999999999964
vertex 70.8025 3.60036934298443 6.349999999999981
vertex 44.79006403026729 4.1049359697327334 6.349999999999963
endloop
endfacet
facet normal 1.7321303750827786e-08 2.8144210774356266e-07 0.9999999999999603
outer loop
vertex 44.79006403026729 4.1049359697327334 6.349999999999963
vertex 70.8025 3.60036934298443 6.349999999999981
vertex 70.14493596973271 4.1049359697327334 6.34999999999998
endloop
endfacet
facet normal 1.7321303750827786e-08 2.8144210774356266e-07 0.9999999999999603
outer loop
vertex 44.79006403026729 4.1049359697327334 6.349999999999963
vertex 70.14493596973271 4.1049359697327334 6.34999999999998
vertex 69.64036934298441 4.7625000000000215 6.349999999999977
endloop
endfacet
facet normal 1.7321303750827786e-08 2.8144210774356266e-07 0.9999999999999603
outer loop
vertex 44.79006403026729 4.1049359697327334 6.349999999999963
vertex 69.64036934298441 4.7625000000000215 6.349999999999977
vertex 45.294630657015595 4.762500000000021 6.349999999999961
endloop
endfacet
facet normal 1.7321303750827786e-08 2.8144210774356266e-07 0.9999999999999603
outer loop
vertex 45.294630657015595 4.762500000000021 6.349999999999961
vertex 69.64036934298441 4.7625000000000215 6.349999999999977
vertex 45.61181449846779 5.528249531799517 6.349999999999958
endloop
endfacet
facet normal 1.7321303750827786e-08 2.8144210774356266e-07 0.9999999999999603
outer loop
vertex 45.61181449846779 5.528249531799517 6.349999999999958
vertex 69.64036934298441 4.7625000000000215 6.349999999999977
vertex 69.32318550153221 5.528249531799518 6.349999999999975
endloop
endfacet
facet normal 1.7321303750827786e-08 2.8144210774356266e-07 0.9999999999999603
outer loop
vertex 45.61181449846779 5.528249531799517 6.349999999999958
vertex 69.32318550153221 5.528249531799518 6.349999999999975
vertex 45.72 6.350000000000021 6.349999999999955
endloop
endfacet
facet normal 1.7321303750827786e-08 2.8144210774356266e-07 0.9999999999999603
outer loop
vertex 45.72 6.350000000000021 6.349999999999955
vertex 69.32318550153221 5.528249531799518 6.349999999999975
vertex 69.215 6.350000000000022 6.349999999999972
endloop
endfacet
facet normal 1.7321303750827786e-08 2.8144210774356266e-07 0.9999999999999603
outer loop
vertex 45.72 6.350000000000021 6.349999999999955
vertex 69.215 6.350000000000022 6.349999999999972
vertex 45.61181449846779 7.171750468200523 6.349999999999953
endloop
endfacet
facet normal 1.7321303750827786e-08 2.8144210774356266e-07 0.9999999999999603
outer loop
vertex 45.61181449846779 7.171750468200523 6.349999999999953
vertex 69.215 6.350000000000022 6.349999999999972
vertex 69.32318550153221 7.171750468200528 6.3499999999999694
endloop
endfacet
facet normal 1.7321303750827786e-08 2.8144210774356266e-07 0.9999999999999603
outer loop
vertex 45.61181449846779 7.171750468200523 6.349999999999953
vertex 69.32318550153221 7.171750468200528 6.3499999999999694
vertex 45.294630657015595 7.937500000000022 6.34999999999995
endloop
endfacet
facet normal 1.7321303750827786e-08 2.8144210774356266e-07 0.9999999999999603
outer loop
vertex 45.294630657015595 7.937500000000022 6.34999999999995
vertex 69.32318550153221 7.171750468200528 6.3499999999999694
vertex 69.64036934298441 7.937500000000022 6.349999999999967
endloop
endfacet
facet normal 1.7321303750827786e-08 2.8144210774356266e-07 0.9999999999999603
outer loop
vertex 45.294630657015595 7.937500000000022 6.34999999999995
vertex 69.64036934298441 7.937500000000022 6.349999999999967
vertex 44.79006403026729 8.59506403026731 6.349999999999947
endloop
endfacet
facet normal 1.7321303750827786e-08 2.8144210774356266e-07 0.9999999999999603
outer loop
vertex 44.79006403026729 8.59506403026731 6.349999999999947
vertex 69.64036934298441 7.937500000000022 6.349999999999967
vertex 70.14493596973271 8.595064030267311 6.349999999999964
endloop
endfacet
facet normal 1.7321303750827786e-08 2.8144210774356266e-07 0.9999999999999603
outer loop
vertex 44.79006403026729 8.59506403026731 6.349999999999947
vertex 70.14493596973271 8.595064030267311 6.349999999999964
vertex 44.1325 9.099630657015615 6.349999999999946
endloop
endfacet
facet normal 1.7321303750827786e-08 2.8144210774356266e-07 0.9999999999999603
outer loop
vertex 44.1325 9.099630657015615 6.349999999999946
vertex 70.14493596973271 8.595064030267311 6.349999999999964
vertex 70.8025 9.099630657015616 6.349999999999963
endloop
endfacet
facet normal 1.7321303750827786e-08 2.8144210774356266e-07 0.9999999999999603
outer loop
vertex 44.1325 9.099630657015615 6.349999999999946
vertex 70.8025 9.099630657015616 6.349999999999963
vertex 43.36675046820051 9.416814498467811 6.349999999999945
endloop
endfacet
facet normal 1.7321303750827786e-08 2.8144210774356266e-07 0.9999999999999603
outer loop
vertex 43.36675046820051 9.416814498467811 6.349999999999945
vertex 70.8025 9.099630657015616 6.349999999999963
vertex 71.5682495317995 9.416814498467815 6.3499999999999615
endloop
endfacet
facet normal 1.7321303750827786e-08 2.8144210774356266e-07 0.9999999999999603
outer loop
vertex 43.36675046820051 9.416814498467811 6.349999999999945
vertex 71.5682495317995 9.416814498467815 6.3499999999999615
vertex 42.545 9.525000000000022 6.349999999999945
endloop
endfacet
facet normal 1.7321303750827786e-08 2.8144210774356266e-07 0.9999999999999603
outer loop
vertex 42.545 9.525000000000022 6.349999999999945
vertex 71.5682495317995 9.416814498467815 6.3499999999999615
vertex 72.39 9.525000000000022 6.3499999999999615
endloop
endfacet
facet normal -0.9999999999999936 1.0858795018719988e-07 -3.393363063249739e-08
outer loop
vertex 3.1750017238333803 15.874999999999117 6.349994440637663
vertex 3.1750013230420584 12.69999855456494 8.000994440637042
vertex 3.1750016678088 15.87499855456492 8.00099444063703
endloop
endfacet
facet normal -0.9999999999999936 1.0858795018719988e-07 -3.393363063249739e-08
outer loop
vertex 3.1750013230420584 12.69999855456494 8.000994440637042
vertex 3.1750017238333803 15.874999999999117 6.349994440637663
vertex 3.1750013790666385 12.699999999999136 6.3499944406376745
endloop
endfacet
facet normal 0.9659258262890685 0.25881904510251974 -8.907752755613742e-16
outer loop
vertex 39.47818550153221 5.528249531799497 -1.8329782136561334e-14
vertex 39.37 6.350000000000022 6.349999999999955
vertex 39.47818550153221 5.528249531799518 6.349999999999958
endloop
endfacet
facet normal 1.0 2.0495552759987884e-16 -7.053936718733049e-31
outer loop
vertex 39.37 6.350000000000022 6.349999999999955
vertex 39.47818550153221 5.528249531799497 -1.8329782136561334e-14
vertex 39.37 6.35 -2.255973186038318e-14
endloop
endfacet
facet normal 0.5000000000000009 0.8660254037844384 -2.9805921638945232e-15
outer loop
vertex 70.8025 3.60036934298443 6.349999999999981
vertex 70.14493596973271 4.104935969732711 -1.4099832412739488e-14
vertex 70.14493596973271 4.1049359697327334 6.34999999999998
endloop
endfacet
facet normal 0.7071067811865482 0.707106781186547 -2.4336433109598497e-15
outer loop
vertex 70.14493596973271 4.104935969732711 -1.4099832412739488e-14
vertex 70.8025 3.60036934298443 6.349999999999981
vertex 70.8025 3.600369342984408 -1.2689849171465539e-14
endloop
endfacet
facet normal 0.7071067811865482 0.707106781186547 -2.4336433109598497e-15
outer loop
vertex 70.14493596973271 4.104935969732711 -1.4099832412739488e-14
vertex 69.64036934298441 4.7625000000000215 6.349999999999977
vertex 70.14493596973271 4.1049359697327334 6.34999999999998
endloop
endfacet
facet normal 0.8660254037844364 0.5000000000000041 -1.7208456881690068e-15
outer loop
vertex 69.64036934298441 4.7625000000000215 6.349999999999977
vertex 70.14493596973271 4.104935969732711 -1.4099832412739488e-14
vertex 69.64036934298441 4.762499999999999 -1.6919798895287383e-14
endloop
endfacet
facet normal 0.8660254037844364 0.5000000000000041 -1.7208456881690068e-15
outer loop
vertex 69.64036934298441 4.762499999999999 -1.6919798895287383e-14
vertex 69.32318550153221 5.528249531799518 6.349999999999975
vertex 69.64036934298441 4.7625000000000215 6.349999999999977
endloop
endfacet
facet normal 0.9659258262890678 0.2588190451025226 -8.907752755613841e-16
outer loop
vertex 69.32318550153221 5.528249531799518 6.349999999999975
vertex 69.64036934298441 4.762499999999999 -1.6919798895287383e-14
vertex 69.32318550153221 5.528249531799497 -1.8329782136561334e-14
endloop
endfacet
facet normal 0.9659258262890678 0.2588190451025226 -8.907752755613841e-16
outer loop
vertex 69.32318550153221 5.528249531799497 -1.8329782136561334e-14
vertex 69.215 6.350000000000022 6.349999999999972
vertex 69.32318550153221 5.528249531799518 6.349999999999975
endloop
endfacet
facet normal 1.0 2.2277774739117245e-16 -7.667322520362003e-31
outer loop
vertex 69.215 6.350000000000022 6.349999999999972
vertex 69.32318550153221 5.528249531799497 -1.8329782136561334e-14
vertex 69.215 6.35 -2.255973186038318e-14
endloop
endfacet
facet normal 1.0 2.2277774739117245e-16 -7.667322520362003e-31
outer loop
vertex 69.215 6.35 -2.255973186038318e-14
vertex 69.32318550153221 7.171750468200528 6.3499999999999694
vertex 69.215 6.350000000000022 6.349999999999972
endloop
endfacet
facet normal 0.9659258262890678 -0.2588190451025227 8.907752755613843e-16
outer loop
vertex 69.32318550153221 7.171750468200528 6.3499999999999694
vertex 69.215 6.35 -2.255973186038318e-14
vertex 69.32318550153221 7.171750468200505 -2.5379698342931078e-14
endloop
endfacet
facet normal 1.0 2.0495552759987884e-16 -7.053936718733049e-31
outer loop
vertex 39.37 6.35 -2.255973186038318e-14
vertex 39.47818550153221 7.171750468200528 6.349999999999953
vertex 39.37 6.350000000000022 6.349999999999955
endloop
endfacet
facet normal 0.9659258262890685 -0.2588190451025199 8.907752755613748e-16
outer loop
vertex 39.47818550153221 7.171750468200528 6.349999999999953
vertex 39.37 6.35 -2.255973186038318e-14
vertex 39.47818550153221 7.171750468200505 -2.5379698342931078e-14
endloop
endfacet
facet normal 0.2588190451025208 0.9659258262890684 -3.3244185865212295e-15
outer loop
vertex 71.5682495317995 3.28318550153223 6.349999999999983
vertex 70.8025 3.600369342984408 -1.2689849171465539e-14
vertex 70.8025 3.60036934298443 6.349999999999981
endloop
endfacet
facet normal 0.5000000000000009 0.8660254037844384 -2.9805921638945232e-15
outer loop
vertex 70.8025 3.600369342984408 -1.2689849171465539e-14
vertex 71.5682495317995 3.28318550153223 6.349999999999983
vertex 71.5682495317995 3.2831855015322082 -1.127986593019159e-14
endloop
endfacet
facet normal -3.3933725700162695e-08 -8.75490125149704e-07 0.9999999999996163
outer loop
vertex 85.08999994397541 15.874998554564948 8.000999999999312
vertex 3.1750013230420584 12.69999855456494 8.000994440637042
vertex 85.09000132304203 12.69999855456494 8.000994440637042
endloop
endfacet
facet normal -3.3933725700162695e-08 -8.75490125149704e-07 0.9999999999996163
outer loop
vertex 3.1750013230420584 12.69999855456494 8.000994440637042
vertex 85.08999994397541 15.874998554564948 8.000999999999312
vertex 3.1750016678088 15.87499855456492 8.00099444063703
endloop
endfacet
facet normal -0.2588190451025201 0.9659258262890685 -3.32441858652123e-15
outer loop
vertex 73.21175046820049 3.28318550153223 6.349999999999983
vertex 72.39 3.175 -1.127986593019159e-14
vertex 72.39 3.1750000000000216 6.349999999999983
endloop
endfacet
facet normal 0.0 1.0 -3.4416913763379853e-15
outer loop
vertex 72.39 3.175 -1.127986593019159e-14
vertex 73.21175046820049 3.28318550153223 6.349999999999983
vertex 73.21175046820049 3.2831855015322082 -1.127986593019159e-14
endloop
endfacet
facet normal 0.0 1.0 -3.4416913763379853e-15
outer loop
vertex 72.39 3.1750000000000216 6.349999999999983
vertex 71.5682495317995 3.2831855015322082 -1.127986593019159e-14
vertex 71.5682495317995 3.28318550153223 6.349999999999983
endloop
endfacet
facet normal 0.2588190451025208 0.9659258262890684 -3.3244185865212295e-15
outer loop
vertex 71.5682495317995 3.2831855015322082 -1.127986593019159e-14
vertex 72.39 3.1750000000000216 6.349999999999983
vertex 72.39 3.175 -1.127986593019159e-14
endloop
endfacet
facet normal 0.9659258262890678 -0.2588190451025227 8.907752755613843e-16
outer loop
vertex 69.32318550153221 7.171750468200505 -2.5379698342931078e-14
vertex 69.64036934298441 7.937500000000022 6.349999999999967
vertex 69.32318550153221 7.171750468200528 6.3499999999999694
endloop
endfacet
facet normal 0.8660254037844362 -0.5000000000000046 1.7208456881690082e-15
outer loop
vertex 69.64036934298441 7.937500000000022 6.349999999999967
vertex 69.32318550153221 7.171750468200505 -2.5379698342931078e-14
vertex 69.64036934298441 7.9375 -2.6789681584205025e-14
endloop
endfacet
facet normal -1.0 -1.1584442864340967e-16 3.987007710588241e-31
outer loop
vertex 75.565 6.349999999999999 -2.1149748619109232e-14
vertex 75.45681449846779 5.528249531799517 6.349999999999975
vertex 75.565 6.350000000000021 6.349999999999972
endloop
endfacet
facet normal -0.965925826289068 0.2588190451025226 -8.907752755613841e-16
outer loop
vertex 75.45681449846779 5.528249531799517 6.349999999999975
vertex 75.565 6.349999999999999 -2.1149748619109232e-14
vertex 75.45681449846779 5.528249531799495 -1.8329782136561334e-14
endloop
endfacet
facet normal 0.8660254037844362 -0.5000000000000046 1.7208456881690082e-15
outer loop
vertex 69.64036934298441 7.9375 -2.6789681584205025e-14
vertex 70.14493596973271 8.595064030267311 6.349999999999964
vertex 69.64036934298441 7.937500000000022 6.349999999999967
endloop
endfacet
facet normal 0.7071067811865485 -0.7071067811865467 2.4336433109598485e-15
outer loop
vertex 70.14493596973271 8.595064030267311 6.349999999999964
vertex 69.64036934298441 7.9375 -2.6789681584205025e-14
vertex 70.14493596973271 8.59506403026729 -2.9609648066752924e-14
endloop
endfacet
facet normal 0.5000000000000008 -0.8660254037844384 2.9805921638945232e-15
outer loop
vertex 70.8025 9.099630657015593 -3.101963130802687e-14
vertex 70.14493596973271 8.595064030267311 6.349999999999964
vertex 70.14493596973271 8.59506403026729 -2.9609648066752924e-14
endloop
endfacet
facet normal 0.7071067811865485 -0.7071067811865467 2.4336433109598485e-15
outer loop
vertex 70.14493596973271 8.595064030267311 6.349999999999964
vertex 70.8025 9.099630657015593 -3.101963130802687e-14
vertex 70.8025 9.099630657015616 6.349999999999963
endloop
endfacet
facet normal 0.25881904510251963 -0.9659258262890685 3.32441858652123e-15
outer loop
vertex 71.5682495317995 9.416814498467792 -3.242961454930082e-14
vertex 70.8025 9.099630657015616 6.349999999999963
vertex 70.8025 9.099630657015593 -3.101963130802687e-14
endloop
endfacet
facet normal 0.5000000000000008 -0.8660254037844384 2.9805921638945232e-15
outer loop
vertex 70.8025 9.099630657015616 6.349999999999963
vertex 71.5682495317995 9.416814498467792 -3.242961454930082e-14
vertex 71.5682495317995 9.416814498467815 6.3499999999999615
endloop
endfacet
facet normal -4.3664438488669835e-16 -1.0 3.4416913763379853e-15
outer loop
vertex 72.39 9.524999999999999 -3.242961454930082e-14
vertex 71.5682495317995 9.416814498467815 6.3499999999999615
vertex 71.5682495317995 9.416814498467792 -3.242961454930082e-14
endloop
endfacet
facet normal 0.25881904510251963 -0.9659258262890685 3.32441858652123e-15
outer loop
vertex 71.5682495317995 9.416814498467815 6.3499999999999615
vertex 72.39 9.524999999999999 -3.242961454930082e-14
vertex 72.39 9.525000000000022 6.3499999999999615
endloop
endfacet
facet normal -0.2588190451025208 -0.9659258262890684 3.3244185865212295e-15
outer loop
vertex 73.21175046820049 9.41681449846779 -3.242961454930082e-14
vertex 72.39 9.525000000000022 6.3499999999999615
vertex 72.39 9.524999999999999 -3.242961454930082e-14
endloop
endfacet
facet normal -4.3664438488669835e-16 -1.0 3.4416913763379853e-15
outer loop
vertex 72.39 9.525000000000022 6.3499999999999615
vertex 73.21175046820049 9.41681449846779 -3.242961454930082e-14
vertex 73.21175046820049 9.416814498467811 6.3499999999999615
endloop
endfacet
facet normal -0.5000000000000014 -0.866025403784438 2.980592163894522e-15
outer loop
vertex 73.97749999999999 9.099630657015592 -3.101963130802687e-14
vertex 73.21175046820049 9.416814498467811 6.3499999999999615
vertex 73.21175046820049 9.41681449846779 -3.242961454930082e-14
endloop
endfacet
facet normal -0.2588190451025208 -0.9659258262890684 3.3244185865212295e-15
outer loop
vertex 73.21175046820049 9.416814498467811 6.3499999999999615
vertex 73.97749999999999 9.099630657015592 -3.101963130802687e-14
vertex 73.97749999999999 9.099630657015615 6.349999999999963
endloop
endfacet
facet normal -0.7071067811865485 -0.7071067811865467 2.4336433109598485e-15
outer loop
vertex 74.63506403026729 8.595064030267286 -2.9609648066752924e-14
vertex 73.97749999999999 9.099630657015615 6.349999999999963
vertex 73.97749999999999 9.099630657015592 -3.101963130802687e-14
endloop
endfacet
facet normal -0.5000000000000014 -0.866025403784438 2.980592163894522e-15
outer loop
vertex 73.97749999999999 9.099630657015615 6.349999999999963
vertex 74.63506403026729 8.595064030267286 -2.9609648066752924e-14
vertex 74.63506403026729 8.59506403026731 6.349999999999964
endloop
endfacet
facet normal -0.7071067811865485 -0.7071067811865467 2.4336433109598485e-15
outer loop
vertex 74.63506403026729 8.595064030267286 -2.9609648066752924e-14
vertex 75.13963065701559 7.937500000000022 6.349999999999967
vertex 74.63506403026729 8.59506403026731 6.349999999999964
endloop
endfacet
facet normal -0.8660254037844362 -0.5000000000000041 1.7208456881690068e-15
outer loop
vertex 75.13963065701559 7.937500000000022 6.349999999999967
vertex 74.63506403026729 8.595064030267286 -2.9609648066752924e-14
vertex 75.13963065701559 7.9375 -2.6789681584205025e-14
endloop
endfacet
facet normal -0.8660254037844362 -0.5000000000000041 1.7208456881690068e-15
outer loop
vertex 75.13963065701559 7.9375 -2.6789681584205025e-14
vertex 75.45681449846779 7.171750468200523 6.3499999999999694
vertex 75.13963065701559 7.937500000000022 6.349999999999967
endloop
endfacet
facet normal -0.9659258262890679 -0.25881904510252246 8.907752755613837e-16
outer loop
vertex 75.45681449846779 7.171750468200523 6.3499999999999694
vertex 75.13963065701559 7.9375 -2.6789681584205025e-14
vertex 75.45681449846779 7.1717504682005 -2.5379698342931078e-14
endloop
endfacet
facet normal -0.9659258262890679 -0.25881904510252246 8.907752755613837e-16
outer loop
vertex 75.45681449846779 7.1717504682005 -2.5379698342931078e-14
vertex 75.565 6.350000000000021 6.349999999999972
vertex 75.45681449846779 7.171750468200523 6.3499999999999694
endloop
endfacet
facet normal -1.0 -1.1584442864340967e-16 3.987007710588241e-31
outer loop
vertex 75.565 6.350000000000021 6.349999999999972
vertex 75.45681449846779 7.1717504682005 -2.5379698342931078e-14
vertex 75.565 6.349999999999999 -2.1149748619109232e-14
endloop
endfacet
facet normal -0.965925826289068 0.2588190451025226 -8.907752755613841e-16
outer loop
vertex 75.45681449846779 5.528249531799495 -1.8329782136561334e-14
vertex 75.13963065701559 4.762500000000021 6.349999999999977
vertex 75.45681449846779 5.528249531799517 6.349999999999975
endloop
endfacet
facet normal -0.866025403784436 0.5000000000000046 -1.7208456881690082e-15
outer loop
vertex 75.13963065701559 4.762500000000021 6.349999999999977
vertex 75.45681449846779 5.528249531799495 -1.8329782136561334e-14
vertex 75.13963065701559 4.762499999999998 -1.6919798895287383e-14
endloop
endfacet
facet normal -0.866025403784436 0.5000000000000046 -1.7208456881690082e-15
outer loop
vertex 75.13963065701559 4.762499999999998 -1.6919798895287383e-14
vertex 74.63506403026729 4.1049359697327334 6.34999999999998
vertex 75.13963065701559 4.762500000000021 6.349999999999977
endloop
endfacet
facet normal -0.7071067811865482 0.7071067811865468 -2.433643310959849e-15
outer loop
vertex 74.63506403026729 4.1049359697327334 6.34999999999998
vertex 75.13963065701559 4.762499999999998 -1.6919798895287383e-14
vertex 74.63506403026729 4.104935969732711 -1.4099832412739488e-14
endloop
endfacet
facet normal -0.7071067811865482 0.7071067811865468 -2.433643310959849e-15
outer loop
vertex 74.63506403026729 4.1049359697327334 6.34999999999998
vertex 73.97749999999999 3.6003693429844064 -1.2689849171465539e-14
vertex 73.97749999999999 3.6003693429844286 6.349999999999981
endloop
endfacet
facet normal -0.5000000000000008 0.8660254037844384 -2.9805921638945232e-15
outer loop
vertex 73.97749999999999 3.6003693429844064 -1.2689849171465539e-14
vertex 74.63506403026729 4.1049359697327334 6.34999999999998
vertex 74.63506403026729 4.104935969732711 -1.4099832412739488e-14
endloop
endfacet
facet normal -0.5000000000000008 0.8660254037844384 -2.9805921638945232e-15
outer loop
vertex 73.97749999999999 3.6003693429844286 6.349999999999981
vertex 73.21175046820049 3.2831855015322082 -1.127986593019159e-14
vertex 73.21175046820049 3.28318550153223 6.349999999999983
endloop
endfacet
facet normal -0.2588190451025201 0.9659258262890685 -3.32441858652123e-15
outer loop
vertex 73.21175046820049 3.2831855015322082 -1.127986593019159e-14
vertex 73.97749999999999 3.6003693429844286 6.349999999999981
vertex 73.97749999999999 3.6003693429844064 -1.2689849171465539e-14
endloop
endfacet
facet normal 0.25881904510251963 -0.9659258262890685 3.32441858652123e-15
outer loop
vertex 41.723249531799496 9.416814498467792 -3.242961454930082e-14
vertex 40.957499999999996 9.099630657015616 6.349999999999946
vertex 40.957499999999996 9.099630657015593 -3.101963130802687e-14
endloop
endfacet
facet normal 0.499999999999999 -0.8660254037844393 2.980592163894526e-15
outer loop
vertex 40.957499999999996 9.099630657015616 6.349999999999946
vertex 41.723249531799496 9.416814498467792 -3.242961454930082e-14
vertex 41.723249531799496 9.416814498467815 6.349999999999945
endloop
endfacet
facet normal 8.911109895646906e-18 -1.0 3.4416913763379853e-15
outer loop
vertex 42.545 9.524999999999999 -3.242961454930082e-14
vertex 41.723249531799496 9.416814498467815 6.349999999999945
vertex 41.723249531799496 9.416814498467792 -3.242961454930082e-14
endloop
endfacet
facet normal 0.25881904510251963 -0.9659258262890685 3.32441858652123e-15
outer loop
vertex 41.723249531799496 9.416814498467815 6.349999999999945
vertex 42.545 9.524999999999999 -3.242961454930082e-14
vertex 42.545 9.525000000000022 6.349999999999945
endloop
endfacet
facet normal -0.2588190451025216 -0.9659258262890681 3.3244185865212283e-15
outer loop
vertex 43.36675046820051 9.41681449846779 -3.242961454930082e-14
vertex 42.545 9.525000000000022 6.349999999999945
vertex 42.545 9.524999999999999 -3.242961454930082e-14
endloop
endfacet
facet normal 8.911109895646906e-18 -1.0 3.4416913763379853e-15
outer loop
vertex 42.545 9.525000000000022 6.349999999999945
vertex 43.36675046820051 9.41681449846779 -3.242961454930082e-14
vertex 43.36675046820051 9.416814498467811 6.349999999999945
endloop
endfacet
facet normal 0.9659258262890685 -0.2588190451025199 8.907752755613748e-16
outer loop
vertex 39.47818550153221 7.171750468200505 -2.5379698342931078e-14
vertex 39.7953693429844 7.937500000000022 6.34999999999995
vertex 39.47818550153221 7.171750468200528 6.349999999999953
endloop
endfacet
facet normal 0.8660254037844392 -0.4999999999999991 1.7208456881689895e-15
outer loop
vertex 39.7953693429844 7.937500000000022 6.34999999999995
vertex 39.47818550153221 7.171750468200505 -2.5379698342931078e-14
vertex 39.7953693429844 7.9375 -2.6789681584205025e-14
endloop
endfacet
facet normal 0.8660254037844392 -0.4999999999999991 1.7208456881689895e-15
outer loop
vertex 39.7953693429844 7.9375 -2.6789681584205025e-14
vertex 40.29993596973271 8.595064030267311 6.349999999999947
vertex 39.7953693429844 7.937500000000022 6.34999999999995
endloop
endfacet
facet normal 0.707106781186547 -0.7071067811865481 2.4336433109598532e-15
outer loop
vertex 40.29993596973271 8.595064030267311 6.349999999999947
vertex 39.7953693429844 7.9375 -2.6789681584205025e-14
vertex 40.29993596973271 8.59506403026729 -2.9609648066752924e-14
endloop
endfacet
facet normal 0.499999999999999 -0.8660254037844393 2.980592163894526e-15
outer loop
vertex 40.957499999999996 9.099630657015593 -3.101963130802687e-14
vertex 40.29993596973271 8.595064030267311 6.349999999999947
vertex 40.29993596973271 8.59506403026729 -2.9609648066752924e-14
endloop
endfacet
facet normal 0.707106781186547 -0.7071067811865481 2.4336433109598532e-15
outer loop
vertex 40.29993596973271 8.595064030267311 6.349999999999947
vertex 40.957499999999996 9.099630657015593 -3.101963130802687e-14
vertex 40.957499999999996 9.099630657015616 6.349999999999946
endloop
endfacet
facet normal -0.25881904510252085 -0.9659258262890684 3.3244185865212295e-15
outer loop
vertex 13.521750468200503 9.41681449846779 -3.242961454930082e-14
vertex 12.7 9.525000000000022 6.349999999999967
vertex 12.7 9.524999999999999 -3.242961454930082e-14
endloop
endfacet
facet normal 0.0 -1.0 3.4416913763379853e-15
outer loop
vertex 12.7 9.525000000000022 6.349999999999967
vertex 13.521750468200503 9.41681449846779 -3.242961454930082e-14
vertex 13.521750468200503 9.416814498467811 6.349999999999967
endloop
endfacet
facet normal -0.5000000000000009 -0.8660254037844384 2.9805921638945232e-15
outer loop
vertex 44.1325 9.099630657015592 -3.101963130802687e-14
vertex 43.36675046820051 9.416814498467811 6.349999999999945
vertex 43.36675046820051 9.41681449846779 -3.242961454930082e-14
endloop
endfacet
facet normal -0.2588190451025216 -0.9659258262890681 3.3244185865212283e-15
outer loop
vertex 43.36675046820051 9.416814498467811 6.349999999999945
vertex 44.1325 9.099630657015592 -3.101963130802687e-14
vertex 44.1325 9.099630657015615 6.349999999999946
endloop
endfacet
facet normal -4.455554947823453e-16 1.0 -3.4416913763379853e-15
outer loop
vertex 42.545 3.1750000000000216 6.349999999999966
vertex 41.723249531799496 3.2831855015322082 -1.127986593019159e-14
vertex 41.723249531799496 3.28318550153223 6.349999999999966
endloop
endfacet
facet normal 0.2588190451025216 0.9659258262890681 -3.3244185865212283e-15
outer loop
vertex 41.723249531799496 3.2831855015322082 -1.127986593019159e-14
vertex 42.545 3.1750000000000216 6.349999999999966
vertex 42.545 3.175 -1.127986593019159e-14
endloop
endfacet
facet normal -0.707106781186547 -0.7071067811865481 2.4336433109598532e-15
outer loop
vertex 44.79006403026729 8.595064030267286 -2.9609648066752924e-14
vertex 44.1325 9.099630657015615 6.349999999999946
vertex 44.1325 9.099630657015592 -3.101963130802687e-14
endloop
endfacet
facet normal -0.5000000000000009 -0.8660254037844384 2.9805921638945232e-15
outer loop
vertex 44.1325 9.099630657015615 6.349999999999946
vertex 44.79006403026729 8.595064030267286 -2.9609648066752924e-14
vertex 44.79006403026729 8.59506403026731 6.349999999999947
endloop
endfacet
facet normal -0.707106781186547 -0.7071067811865481 2.4336433109598532e-15
outer loop
vertex 44.79006403026729 8.595064030267286 -2.9609648066752924e-14
vertex 45.294630657015595 7.937500000000022 6.34999999999995
vertex 44.79006403026729 8.59506403026731 6.349999999999947
endloop
endfacet
facet normal -0.8660254037844395 -0.4999999999999987 1.7208456881689883e-15
outer loop
vertex 45.294630657015595 7.937500000000022 6.34999999999995
vertex 44.79006403026729 8.595064030267286 -2.9609648066752924e-14
vertex 45.294630657015595 7.9375 -2.6789681584205025e-14
endloop
endfacet
facet normal -0.8660254037844395 -0.4999999999999987 1.7208456881689883e-15
outer loop
vertex 45.294630657015595 7.9375 -2.6789681584205025e-14
vertex 45.61181449846779 7.171750468200523 6.349999999999953
vertex 45.294630657015595 7.937500000000022 6.34999999999995
endloop
endfacet
facet normal -0.9659258262890686 -0.2588190451025197 8.90775275561374e-16
outer loop
vertex 45.61181449846779 7.171750468200523 6.349999999999953
vertex 45.294630657015595 7.9375 -2.6789681584205025e-14
vertex 45.61181449846779 7.1717504682005 -2.5379698342931078e-14
endloop
endfacet
facet normal -0.9659258262890686 -0.2588190451025197 8.90775275561374e-16
outer loop
vertex 45.61181449846779 7.1717504682005 -2.5379698342931078e-14
vertex 45.72 6.350000000000021 6.349999999999955
vertex 45.61181449846779 7.171750468200523 6.349999999999953
endloop
endfacet
facet normal -1.0 -1.1584442864340977e-16 3.987007710588245e-31
outer loop
vertex 45.72 6.350000000000021 6.349999999999955
vertex 45.61181449846779 7.1717504682005 -2.5379698342931078e-14
vertex 45.72 6.349999999999999 -2.1149748619109232e-14
endloop
endfacet
facet normal -1.0 -1.1584442864340977e-16 3.987007710588245e-31
outer loop
vertex 45.72 6.349999999999999 -2.1149748619109232e-14
vertex 45.61181449846779 5.528249531799517 6.349999999999958
vertex 45.72 6.350000000000021 6.349999999999955
endloop
endfacet
facet normal -0.9659258262890685 0.2588190451025197 -8.90775275561374e-16
outer loop
vertex 45.61181449846779 5.528249531799517 6.349999999999958
vertex 45.72 6.349999999999999 -2.1149748619109232e-14
vertex 45.61181449846779 5.528249531799495 -1.8329782136561334e-14
endloop
endfacet
facet normal -0.9659258262890685 0.2588190451025197 -8.90775275561374e-16
outer loop
vertex 45.61181449846779 5.528249531799495 -1.8329782136561334e-14
vertex 45.294630657015595 4.762500000000021 6.349999999999961
vertex 45.61181449846779 5.528249531799517 6.349999999999958
endloop
endfacet
facet normal -0.8660254037844394 0.4999999999999991 -1.7208456881689897e-15
outer loop
vertex 45.294630657015595 4.762500000000021 6.349999999999961
vertex 45.61181449846779 5.528249531799495 -1.8329782136561334e-14
vertex 45.294630657015595 4.762499999999998 -1.6919798895287383e-14
endloop
endfacet
facet normal -0.8660254037844394 0.4999999999999991 -1.7208456881689897e-15
outer loop
vertex 45.294630657015595 4.762499999999998 -1.6919798895287383e-14
vertex 44.79006403026729 4.1049359697327334 6.349999999999963
vertex 45.294630657015595 4.762500000000021 6.349999999999961
endloop
endfacet
facet normal -0.7071067811865468 0.7071067811865483 -2.433643310959854e-15
outer loop
vertex 44.79006403026729 4.1049359697327334 6.349999999999963
vertex 45.294630657015595 4.762499999999998 -1.6919798895287383e-14
vertex 44.79006403026729 4.104935969732711 -1.4099832412739488e-14
endloop
endfacet
facet normal -0.7071067811865468 0.7071067811865483 -2.433643310959854e-15
outer loop
vertex 44.79006403026729 4.1049359697327334 6.349999999999963
vertex 44.1325 3.6003693429844064 -1.2689849171465539e-14
vertex 44.1325 3.6003693429844286 6.349999999999964
endloop
endfacet
facet normal -0.499999999999999 0.8660254037844393 -2.980592163894526e-15
outer loop
vertex 44.1325 3.6003693429844064 -1.2689849171465539e-14
vertex 44.79006403026729 4.1049359697327334 6.349999999999963
vertex 44.79006403026729 4.104935969732711 -1.4099832412739488e-14
endloop
endfacet
facet normal -0.499999999999999 0.8660254037844393 -2.980592163894526e-15
outer loop
vertex 44.1325 3.6003693429844286 6.349999999999964
vertex 43.3667504682005 3.2831855015322082 -1.127986593019159e-14
vertex 43.3667504682005 3.28318550153223 6.349999999999966
endloop
endfacet
facet normal -0.2588190451025201 0.9659258262890685 -3.32441858652123e-15
outer loop
vertex 43.3667504682005 3.2831855015322082 -1.127986593019159e-14
vertex 44.1325 3.6003693429844286 6.349999999999964
vertex 44.1325 3.6003693429844064 -1.2689849171465539e-14
endloop
endfacet
facet normal -0.2588190451025201 0.9659258262890685 -3.32441858652123e-15
outer loop
vertex 43.3667504682005 3.28318550153223 6.349999999999966
vertex 42.545 3.175 -1.127986593019159e-14
vertex 42.545 3.1750000000000216 6.349999999999966
endloop
endfacet
facet normal -4.455554947823453e-16 1.0 -3.4416913763379853e-15
outer loop
vertex 42.545 3.175 -1.127986593019159e-14
vertex 43.3667504682005 3.28318550153223 6.349999999999966
vertex 43.3667504682005 3.2831855015322082 -1.127986593019159e-14
endloop
endfacet
facet normal 0.2588190451025216 0.9659258262890681 -3.3244185865212283e-15
outer loop
vertex 41.723249531799496 3.28318550153223 6.349999999999966
vertex 40.957499999999996 3.600369342984408 -1.2689849171465539e-14
vertex 40.957499999999996 3.60036934298443 6.349999999999964
endloop
endfacet
facet normal 0.5000000000000002 0.8660254037844386 -2.980592163894524e-15
outer loop
vertex 40.957499999999996 3.600369342984408 -1.2689849171465539e-14
vertex 41.723249531799496 3.28318550153223 6.349999999999966
vertex 41.723249531799496 3.2831855015322082 -1.127986593019159e-14
endloop
endfacet
facet normal 0.5000000000000002 0.8660254037844386 -2.980592163894524e-15
outer loop
vertex 40.957499999999996 3.60036934298443 6.349999999999964
vertex 40.29993596973271 4.104935969732711 -1.4099832412739488e-14
vertex 40.29993596973271 4.1049359697327334 6.349999999999963
endloop
endfacet
facet normal 0.7071067811865467 0.7071067811865483 -2.433643310959854e-15
outer loop
vertex 40.29993596973271 4.104935969732711 -1.4099832412739488e-14
vertex 40.957499999999996 3.60036934298443 6.349999999999964
vertex 40.957499999999996 3.600369342984408 -1.2689849171465539e-14
endloop
endfacet
facet normal 0.7071067811865467 0.7071067811865483 -2.433643310959854e-15
outer loop
vertex 40.29993596973271 4.104935969732711 -1.4099832412739488e-14
vertex 39.7953693429844 4.7625000000000215 6.349999999999961
vertex 40.29993596973271 4.1049359697327334 6.349999999999963
endloop
endfacet
facet normal 0.8660254037844395 0.49999999999999856 -1.7208456881689877e-15
outer loop
vertex 39.7953693429844 4.7625000000000215 6.349999999999961
vertex 40.29993596973271 4.104935969732711 -1.4099832412739488e-14
vertex 39.7953693429844 4.762499999999999 -1.6919798895287383e-14
endloop
endfacet
facet normal 0.8660254037844395 0.49999999999999856 -1.7208456881689877e-15
outer loop
vertex 39.7953693429844 4.762499999999999 -1.6919798895287383e-14
vertex 39.47818550153221 5.528249531799518 6.349999999999958
vertex 39.7953693429844 4.7625000000000215 6.349999999999961
endloop
endfacet
facet normal 0.9659258262890685 0.25881904510251974 -8.907752755613742e-16
outer loop
vertex 39.47818550153221 5.528249531799518 6.349999999999958
vertex 39.7953693429844 4.762499999999999 -1.6919798895287383e-14
vertex 39.47818550153221 5.528249531799497 -1.8329782136561334e-14
endloop
endfacet
facet normal -0.5 -0.8660254037844387 2.9805921638945244e-15
outer loop
vertex 14.2875 9.099630657015592 -3.101963130802687e-14
vertex 13.521750468200503 9.416814498467811 6.349999999999967
vertex 13.521750468200503 9.41681449846779 -3.242961454930082e-14
endloop
endfacet
facet normal -0.25881904510252085 -0.9659258262890684 3.3244185865212295e-15
outer loop
vertex 13.521750468200503 9.416814498467811 6.349999999999967
vertex 14.2875 9.099630657015592 -3.101963130802687e-14
vertex 14.2875 9.099630657015615 6.349999999999969
endloop
endfacet
facet normal -0.9659258262890684 -0.2588190451025205 8.90775275561377e-16
outer loop
vertex 15.76681449846779 7.171750468200503 -2.5379698342931078e-14
vertex 15.875 6.350000000000022 6.349999999999977
vertex 15.76681449846779 7.171750468200526 6.349999999999975
endloop
endfacet
facet normal -1.0 -2.2277774739117265e-16 7.66732252036201e-31
outer loop
vertex 15.875 6.350000000000022 6.349999999999977
vertex 15.76681449846779 7.171750468200503 -2.5379698342931078e-14
vertex 15.875 6.35 -2.255973186038318e-14
endloop
endfacet
facet normal -1.0 -2.2277774739117265e-16 7.66732252036201e-31
outer loop
vertex 15.875 6.35 -2.255973186038318e-14
vertex 15.76681449846779 5.528249531799515 6.349999999999981
vertex 15.875 6.350000000000022 6.349999999999977
endloop
endfacet
facet normal -0.9659258262890683 0.25881904510252135 -8.907752755613798e-16
outer loop
vertex 15.76681449846779 5.528249531799515 6.349999999999981
vertex 15.875 6.35 -2.255973186038318e-14
vertex 15.76681449846779 5.528249531799494 -1.8329782136561334e-14
endloop
endfacet
facet normal -0.9659258262890683 0.25881904510252135 -8.907752755613798e-16
outer loop
vertex 15.76681449846779 5.528249531799494 -1.8329782136561334e-14
vertex 15.449630657015591 4.762500000000021 6.349999999999984
vertex 15.76681449846779 5.528249531799515 6.349999999999981
endloop
endfacet
facet normal -0.8660254037844386 0.5000000000000003 -1.7208456881689938e-15
outer loop
vertex 15.449630657015591 4.762500000000021 6.349999999999984
vertex 15.76681449846779 5.528249531799494 -1.8329782136561334e-14
vertex 15.449630657015591 4.762499999999998 -1.6919798895287383e-14
endloop
endfacet
facet normal -0.7071067811865474 -0.7071067811865477 2.433643310959852e-15
outer loop
vertex 14.94506403026729 8.595064030267286 -2.9609648066752924e-14
vertex 14.2875 9.099630657015615 6.349999999999969
vertex 14.2875 9.099630657015592 -3.101963130802687e-14
endloop
endfacet
facet normal -0.5 -0.8660254037844387 2.9805921638945244e-15
outer loop
vertex 14.2875 9.099630657015615 6.349999999999969
vertex 14.94506403026729 8.595064030267286 -2.9609648066752924e-14
vertex 14.94506403026729 8.59506403026731 6.34999999999997
endloop
endfacet
facet normal -0.7071067811865474 -0.7071067811865477 2.433643310959852e-15
outer loop
vertex 14.94506403026729 8.595064030267286 -2.9609648066752924e-14
vertex 15.449630657015593 7.937500000000022 6.349999999999972
vertex 14.94506403026729 8.59506403026731 6.34999999999997
endloop
endfacet
facet normal -0.8660254037844387 -0.5 1.7208456881689926e-15
outer loop
vertex 15.449630657015593 7.937500000000022 6.349999999999972
vertex 14.94506403026729 8.595064030267286 -2.9609648066752924e-14
vertex 15.449630657015593 7.9375 -2.6789681584205025e-14
endloop
endfacet
facet normal -0.8660254037844387 -0.5 1.7208456881689926e-15
outer loop
vertex 15.449630657015593 7.9375 -2.6789681584205025e-14
vertex 15.76681449846779 7.171750468200526 6.349999999999975
vertex 15.449630657015593 7.937500000000022 6.349999999999972
endloop
endfacet
facet normal -0.9659258262890684 -0.2588190451025205 8.90775275561377e-16
outer loop
vertex 15.76681449846779 7.171750468200526 6.349999999999975
vertex 15.449630657015593 7.9375 -2.6789681584205025e-14
vertex 15.76681449846779 7.171750468200503 -2.5379698342931078e-14
endloop
endfacet
facet normal -0.8660254037844386 0.5000000000000003 -1.7208456881689938e-15
outer loop
vertex 15.449630657015591 4.762499999999998 -1.6919798895287383e-14
vertex 14.94506403026729 4.104935969732732 6.349999999999985
vertex 15.449630657015591 4.762500000000021 6.349999999999984
endloop
endfacet
facet normal -0.7071067811865474 0.7071067811865478 -2.4336433109598525e-15
outer loop
vertex 14.94506403026729 4.104935969732732 6.349999999999985
vertex 15.449630657015591 4.762499999999998 -1.6919798895287383e-14
vertex 14.94506403026729 4.10493596973271 -1.4099832412739488e-14
endloop
endfacet
facet normal 0.9659258262890682 -0.2588190451025211 8.907752755613788e-16
outer loop
vertex 9.633185501532209 7.171750468200503 -2.5379698342931078e-14
vertex 9.950369342984407 7.937500000000022 6.349999999999972
vertex 9.633185501532209 7.171750468200526 6.349999999999975
endloop
endfacet
facet normal 0.8660254037844384 -0.5000000000000004 1.7208456881689942e-15
outer loop
vertex 9.950369342984407 7.937500000000022 6.349999999999972
vertex 9.633185501532209 7.171750468200503 -2.5379698342931078e-14
vertex 9.950369342984407 7.9375 -2.6789681584205025e-14
endloop
endfacet
facet normal -0.7071067811865474 0.7071067811865478 -2.4336433109598525e-15
outer loop
vertex 14.94506403026729 4.104935969732732 6.349999999999985
vertex 14.287499999999996 3.600369342984405 -1.2689849171465539e-14
vertex 14.287499999999996 3.600369342984427 6.349999999999987
endloop
endfacet
facet normal -0.49999999999999944 0.866025403784439 -2.9805921638945256e-15
outer loop
vertex 14.287499999999996 3.600369342984405 -1.2689849171465539e-14
vertex 14.94506403026729 4.104935969732732 6.349999999999985
vertex 14.94506403026729 4.10493596973271 -1.4099832412739488e-14
endloop
endfacet
facet normal -0.49999999999999944 0.866025403784439 -2.9805921638945256e-15
outer loop
vertex 14.287499999999996 3.600369342984427 6.349999999999987
vertex 13.5217504682005 3.283185501532207 -1.127986593019159e-14
vertex 13.5217504682005 3.2831855015322287 6.349999999999988
endloop
endfacet
facet normal -0.2588190451025201 0.9659258262890684 -3.3244185865212295e-15
outer loop
vertex 13.5217504682005 3.283185501532207 -1.127986593019159e-14
vertex 14.287499999999996 3.600369342984427 6.349999999999987
vertex 14.287499999999996 3.600369342984405 -1.2689849171465539e-14
endloop
endfacet
facet normal -0.2588190451025201 0.9659258262890684 -3.3244185865212295e-15
outer loop
vertex 13.5217504682005 3.2831855015322287 6.349999999999988
vertex 12.7 3.175 -1.127986593019159e-14
vertex 12.7 3.1750000000000216 6.349999999999988
endloop
endfacet
facet normal 5.1684437394752055e-16 1.0 -3.4416913763379853e-15
outer loop
vertex 12.7 3.175 -1.127986593019159e-14
vertex 13.5217504682005 3.2831855015322287 6.349999999999988
vertex 13.5217504682005 3.283185501532207 -1.127986593019159e-14
endloop
endfacet
facet normal 5.1684437394752055e-16 1.0 -3.4416913763379853e-15
outer loop
vertex 12.7 3.1750000000000216 6.349999999999988
vertex 11.878249531799494 3.2831855015322082 -1.127986593019159e-14
vertex 11.878249531799494 3.28318550153223 6.349999999999988
endloop
endfacet
facet normal 0.25881904510252135 0.9659258262890683 -3.324418586521229e-15
outer loop
vertex 11.878249531799494 3.2831855015322082 -1.127986593019159e-14
vertex 12.7 3.1750000000000216 6.349999999999988
vertex 12.7 3.175 -1.127986593019159e-14
endloop
endfacet
facet normal 0.25881904510252135 0.9659258262890683 -3.324418586521229e-15
outer loop
vertex 11.878249531799494 3.28318550153223 6.349999999999988
vertex 11.112499999999997 3.600369342984408 -1.2689849171465539e-14
vertex 11.112499999999997 3.60036934298443 6.349999999999987
endloop
endfacet
facet normal 0.500000000000001 0.8660254037844383 -2.980592163894523e-15
outer loop
vertex 11.112499999999997 3.600369342984408 -1.2689849171465539e-14
vertex 11.878249531799494 3.28318550153223 6.349999999999988
vertex 11.878249531799494 3.2831855015322082 -1.127986593019159e-14
endloop
endfacet
facet normal 0.500000000000001 0.8660254037844383 -2.980592163894523e-15
outer loop
vertex 11.112499999999997 3.60036934298443 6.349999999999987
vertex 10.454935969732709 4.104935969732713 -1.4099832412739488e-14
vertex 10.454935969732709 4.104935969732735 6.349999999999985
endloop
endfacet
facet normal 0.707106781186548 0.707106781186547 -2.4336433109598497e-15
outer loop
vertex 10.454935969732709 4.104935969732713 -1.4099832412739488e-14
vertex 11.112499999999997 3.60036934298443 6.349999999999987
vertex 11.112499999999997 3.600369342984408 -1.2689849171465539e-14
endloop
endfacet
facet normal 0.707106781186548 0.707106781186547 -2.4336433109598497e-15
outer loop
vertex 10.454935969732709 4.104935969732713 -1.4099832412739488e-14
vertex 9.950369342984406 4.762500000000023 6.349999999999983
vertex 10.454935969732709 4.104935969732735 6.349999999999985
endloop
endfacet
facet normal 0.8660254037844387 0.5000000000000001 -1.720845688168993e-15
outer loop
vertex 9.950369342984406 4.762500000000023 6.349999999999983
vertex 10.454935969732709 4.104935969732713 -1.4099832412739488e-14
vertex 9.950369342984406 4.762500000000001 -1.6919798895287383e-14
endloop
endfacet
facet normal 0.8660254037844387 0.5000000000000001 -1.720845688168993e-15
outer loop
vertex 9.950369342984406 4.762500000000001 -1.6919798895287383e-14
vertex 9.633185501532207 5.52824953179952 6.349999999999981
vertex 9.950369342984406 4.762500000000023 6.349999999999983
endloop
endfacet
facet normal 0.9659258262890684 0.25881904510252046 -8.907752755613768e-16
outer loop
vertex 9.633185501532207 5.52824953179952 6.349999999999981
vertex 9.950369342984406 4.762500000000001 -1.6919798895287383e-14
vertex 9.633185501532207 5.5282495317994975 -1.8329782136561334e-14
endloop
endfacet
facet normal 0.9659258262890684 0.25881904510252046 -8.907752755613768e-16
outer loop
vertex 9.633185501532207 5.5282495317994975 -1.8329782136561334e-14
vertex 9.524999999999999 6.350000000000022 6.349999999999977
vertex 9.633185501532207 5.52824953179952 6.349999999999981
endloop
endfacet
facet normal 1.0 -7.841776708169276e-16 2.698897527167427e-30
outer loop
vertex 9.524999999999999 6.350000000000022 6.349999999999977
vertex 9.633185501532207 5.5282495317994975 -1.8329782136561334e-14
vertex 9.524999999999999 6.35 -2.255973186038318e-14
endloop
endfacet
facet normal 1.0 -7.841776708169276e-16 2.698897527167427e-30
outer loop
vertex 9.524999999999999 6.35 -2.255973186038318e-14
vertex 9.633185501532209 7.171750468200526 6.349999999999975
vertex 9.524999999999999 6.350000000000022 6.349999999999977
endloop
endfacet
facet normal 0.9659258262890682 -0.2588190451025211 8.907752755613788e-16
outer loop
vertex 9.633185501532209 7.171750468200526 6.349999999999975
vertex 9.524999999999999 6.35 -2.255973186038318e-14
vertex 9.633185501532209 7.171750468200503 -2.5379698342931078e-14
endloop
endfacet
facet normal 0.8660254037844384 -0.5000000000000004 1.7208456881689942e-15
outer loop
vertex 9.950369342984407 7.9375 -2.6789681584205025e-14
vertex 10.45493596973271 8.59506403026731 6.34999999999997
vertex 9.950369342984407 7.937500000000022 6.349999999999972
endloop
endfacet
facet normal 0.7071067811865476 -0.7071067811865475 2.4336433109598513e-15
outer loop
vertex 10.45493596973271 8.59506403026731 6.34999999999997
vertex 9.950369342984407 7.9375 -2.6789681584205025e-14
vertex 10.45493596973271 8.595064030267286 -2.9609648066752924e-14
endloop
endfacet
facet normal 0.5 -0.8660254037844387 2.9805921638945244e-15
outer loop
vertex 11.112499999999999 9.099630657015592 -3.101963130802687e-14
vertex 10.45493596973271 8.59506403026731 6.34999999999997
vertex 10.45493596973271 8.595064030267286 -2.9609648066752924e-14
endloop
endfacet
facet normal 0.7071067811865476 -0.7071067811865475 2.4336433109598513e-15
outer loop
vertex 10.45493596973271 8.59506403026731 6.34999999999997
vertex 11.112499999999999 9.099630657015592 -3.101963130802687e-14
vertex 11.112499999999999 9.099630657015615 6.349999999999969
endloop
endfacet
facet normal 0.2588190451025205 -0.9659258262890684 3.3244185865212295e-15
outer loop
vertex 11.878249531799495 9.41681449846779 -3.242961454930082e-14
vertex 11.112499999999999 9.099630657015615 6.349999999999969
vertex 11.112499999999999 9.099630657015592 -3.101963130802687e-14
endloop
endfacet
facet normal 0.5 -0.8660254037844387 2.9805921638945244e-15
outer loop
vertex 11.112499999999999 9.099630657015615 6.349999999999969
vertex 11.878249531799495 9.41681449846779 -3.242961454930082e-14
vertex 11.878249531799495 9.416814498467811 6.349999999999967
endloop
endfacet
facet normal 0.0 -1.0 3.4416913763379853e-15
outer loop
vertex 12.7 9.524999999999999 -3.242961454930082e-14
vertex 11.878249531799495 9.416814498467811 6.349999999999967
vertex 11.878249531799495 9.41681449846779 -3.242961454930082e-14
endloop
endfacet
facet normal 0.2588190451025205 -0.9659258262890684 3.3244185865212295e-15
outer loop
vertex 11.878249531799495 9.416814498467811 6.349999999999967
vertex 12.7 9.524999999999999 -3.242961454930082e-14
vertex 12.7 9.525000000000022 6.349999999999967
endloop
endfacet
facet normal 0.0 -0.9999999999996169 -8.754901251497043e-07
outer loop
vertex 3.1750013790666385 12.699999999999136 6.3499944406376745
vertex 85.09000132304203 12.69999855456494 8.000994440637042
vertex 3.1750013230420584 12.69999855456494 8.000994440637042
endloop
endfacet
facet normal 0.0 -0.9999999999996169 -8.754901251497043e-07
outer loop
vertex 85.09000132304203 12.69999855456494 8.000994440637042
vertex 3.1750013790666385 12.699999999999136 6.3499944406376745
vertex 85.09000137906662 12.699999999999136 6.3499944406376745
endloop
endfacet
endsolid jaw
